<svg xmlns="http://www.w3.org/2000/svg" width="34.994" height="30.159" viewBox="0 0 34.994 30.159"><defs><style>.a{fill:#707070;}</style></defs><path class="a" d="M6.868,39.575a3.968,3.968,0,0,1-1.934-.521,3.84,3.84,0,0,1-1.86-2.38A3.8,3.8,0,0,1,3.483,33.7L17.059,11.307h0a3.974,3.974,0,0,1,6.769,0L37.4,33.7a3.876,3.876,0,0,1-.6,4.686,4.143,4.143,0,0,1-2.79,1.19ZM18.324,12.088,4.785,34.479a2.377,2.377,0,0,0-.26,1.823A2.43,2.43,0,0,0,5.678,37.79a2.307,2.307,0,0,0,1.19.335H33.983a2.279,2.279,0,0,0,1.711-.744,2.37,2.37,0,0,0,.372-2.9l-13.5-22.391a2.473,2.473,0,0,0-3.422-.781,2.733,2.733,0,0,0-.818.781Z" transform="translate(-2.941 -9.416)"/><path class="a" d="M48.744,41.947A.746.746,0,0,1,48,41.2V31.644a.744.744,0,1,1,1.488,0V41.2A.746.746,0,0,1,48.744,41.947Z" transform="translate(-31.24 -22.909)"/><circle class="a" cx="1.674" cy="1.674" r="1.674" transform="translate(15.83 21.381)"/><path class="a" d="M6.868,39.575a3.968,3.968,0,0,1-1.934-.521,3.84,3.84,0,0,1-1.86-2.38A3.8,3.8,0,0,1,3.483,33.7L17.059,11.307h0a3.974,3.974,0,0,1,6.769,0L37.4,33.7a3.876,3.876,0,0,1-.6,4.686,4.143,4.143,0,0,1-2.79,1.19ZM18.324,12.088,4.785,34.479a2.377,2.377,0,0,0-.26,1.823A2.43,2.43,0,0,0,5.678,37.79a2.307,2.307,0,0,0,1.19.335H33.983a2.279,2.279,0,0,0,1.711-.744,2.37,2.37,0,0,0,.372-2.9l-13.5-22.391a2.473,2.473,0,0,0-3.422-.781,2.733,2.733,0,0,0-.818.781Z" transform="translate(-2.941 -9.416)"/><path class="a" d="M48.744,41.947A.746.746,0,0,1,48,41.2V31.644a.744.744,0,1,1,1.488,0V41.2A.746.746,0,0,1,48.744,41.947Z" transform="translate(-31.24 -22.909)"/></svg>