<svg xmlns="http://www.w3.org/2000/svg" width="23.049" height="14.131" viewBox="0 0 23.049 14.131"><defs><style>.a{fill:#707070;}</style></defs><path class="a" d="M55.825,33.9H49.23a.434.434,0,1,1,0-.868h6.638a.781.781,0,1,0,0-1.562H47.234a.434.434,0,0,1,0-.868h8.634a1.649,1.649,0,1,1-.043,3.3Z" transform="translate(-36.333 -27.099)"/><path class="a" d="M60.295,39.5H51.834a.434.434,0,0,1,0-.868h8.5a.781.781,0,1,0,0-1.562H58.472a.434.434,0,0,1,0-.868h1.866a1.648,1.648,0,0,1,1.649,1.649A1.686,1.686,0,0,1,60.295,39.5Z" transform="translate(-38.937 -30.269)"/><path class="a" d="M58.429,45.1H51.834a.434.434,0,0,1,0-.868h6.638a.781.781,0,1,0,0-1.562.434.434,0,0,1,0-.868,1.649,1.649,0,1,1-.043,3.3Z" transform="translate(-38.937 -33.44)"/><path class="a" d="M26.431,50.741H20.183a24.761,24.761,0,0,1-6.942-1.171,10.082,10.082,0,0,0-1.215-.3,15.1,15.1,0,0,0-2.95-.13h.358a.434.434,0,0,1,0-.868H9.076a17.345,17.345,0,0,1,3.124.13s.564.13,1.3.347a26.888,26.888,0,0,0,6.725,1.085h6.2a.781.781,0,1,0,0-1.562.434.434,0,1,1,0-.868,1.648,1.648,0,0,1,1.649,1.649A1.686,1.686,0,0,1,26.431,50.741Z" transform="translate(-8.588 -36.61)"/><path class="a" d="M11.788,27.334h-.054a.434.434,0,1,1,0-.868h.1a5.059,5.059,0,0,0,2.733-1.128c.521-.434,1.128-.868,1.822-1.345a4.9,4.9,0,0,1,3.384-.824,7.545,7.545,0,0,0,3.731-.434,2.281,2.281,0,0,1,1.519-.13c.043,0,.087.043.13.043A1.62,1.62,0,0,1,26.279,24.3a1.935,1.935,0,0,1-.651,1.432.461.461,0,1,1-.607-.694.993.993,0,0,0,.347-.738.746.746,0,0,0-.477-.781c-.043,0-.043,0-.087-.043a1.48,1.48,0,0,0-.955.087,7.821,7.821,0,0,1-4.209.521,3.924,3.924,0,0,0-2.777.651c-.694.477-1.258.911-1.779,1.345A6.866,6.866,0,0,1,11.788,27.334Z" transform="translate(-11.3 -22.531)"/><circle class="a" cx="0.564" cy="0.564" r="0.564" transform="translate(5.695 7.634)"/><circle class="a" cx="0.564" cy="0.564" r="0.564" transform="translate(9.024 10.237)"/><circle class="a" cx="0.564" cy="0.564" r="0.564" transform="translate(7.441 4.531)"/><circle class="a" cx="0.564" cy="0.564" r="0.564" transform="translate(2.18 8.924)"/></svg>