<svg xmlns="http://www.w3.org/2000/svg" width="20.441" height="18.794" viewBox="0 0 20.441 18.794"><defs><style>.a{fill:#707070;}</style></defs><path class="a" d="M1.891,22.9H1c-.5,0-.769,0-.924-.164A.409.409,0,0,1-.007,22.4,24.725,24.725,0,0,1,1.67,17.3,5.874,5.874,0,0,1,.034,12.39,9.354,9.354,0,0,1,5,5.9c4.72-2.634,9.989-2.356,15.241.761a.409.409,0,0,1,0,.679,8.253,8.253,0,0,0-2.528,4.164,11.824,11.824,0,0,1-2,3.911C13.427,18.158,7.97,20.727,4,18.984a16.9,16.9,0,0,0-1.145,3.583C2.8,22.854,2.783,22.9,1.891,22.9Zm-.982-.818h1.2A18.229,18.229,0,0,1,3.3,18.526l.115-.27a.409.409,0,0,1,.536-.218l.029.013c3.583,1.9,9-.614,11.11-3.174a11.19,11.19,0,0,0,1.849-3.665,9.375,9.375,0,0,1,2.373-4.156C15.832,5.118,10.751,3.62,5.4,6.59a8.661,8.661,0,0,0-4.54,5.858,5.032,5.032,0,0,0,1.211,4.042A15.07,15.07,0,0,1,7.8,10.542l.417.7C3.495,14.076,1.834,18.264.909,22.085Z" transform="translate(0.019 -4.109)"/></svg>