<svg xmlns="http://www.w3.org/2000/svg" width="26.861" height="21.259" viewBox="0 0 26.861 21.259"><defs><style>.a{fill:#fff;}</style></defs><path class="a" d="M28.961,17.149l-2.205-2.177a1.046,1.046,0,0,0-.933-.368,1.33,1.33,0,0,0-.933.4l-2.177,2.177a2.409,2.409,0,0,0-1.922-.989H14.685a6.357,6.357,0,1,0-8.425,8.34v6.7a2.431,2.431,0,0,0,2.431,2.431H20.819a2.449,2.449,0,0,0,2.431-2.431V24.811l5.767-5.824A1.324,1.324,0,0,0,28.961,17.149ZM16.8,25.772l1.414,1.414-2.12.989a.222.222,0,0,1-.311-.283Zm2.968.339c-.085.085-.17.141-.254.226L17.653,24.5a2.056,2.056,0,0,1,.226-.254L23.392,18.7,25.286,20.6ZM4.027,18.761A4.834,4.834,0,1,1,8.861,23.6,4.85,4.85,0,0,1,4.027,18.761ZM21.7,31.228a.936.936,0,0,1-.9.933H8.663a.917.917,0,0,1-.9-.933V24.98a6.935,6.935,0,0,0,1.1.113,6.37,6.37,0,0,0,6.361-6.361,6.23,6.23,0,0,0-.113-1.018h5.682a.926.926,0,0,1,.848.565l-4.806,4.862a6.981,6.981,0,0,0-1.357,1.922L14.458,27.27a1.718,1.718,0,0,0,.339,1.951,1.69,1.69,0,0,0,1.216.509,1.649,1.649,0,0,0,.735-.17l2.177-1.018a6.981,6.981,0,0,0,1.922-1.357l.848-.848ZM26.36,19.5,24.466,17.6l1.414-1.414,1.894,1.894Z" transform="translate(-2.5 -12.4)"/><path class="a" d="M20.348,28.6a.786.786,0,0,0-1.074.028l-1.866,2.007-.735-.763a.76.76,0,0,0-1.1,1.046L16.843,32.3a.813.813,0,0,0,.565.254.753.753,0,0,0,.565-.254L20.4,29.7A.793.793,0,0,0,20.348,28.6Z" transform="translate(-11.726 -23.875)"/></svg>