<svg xmlns="http://www.w3.org/2000/svg" width="28.535" height="22.584" viewBox="0 0 28.535 22.584"><defs><style>.a{fill:#33d89e;}</style></defs><path class="a" d="M30.61,17.445l-2.343-2.312a1.111,1.111,0,0,0-.991-.39,1.413,1.413,0,0,0-.991.42l-2.312,2.312a2.559,2.559,0,0,0-2.042-1.051H15.444a6.753,6.753,0,1,0-8.95,8.86V32.4a2.583,2.583,0,0,0,2.583,2.583H21.961A2.6,2.6,0,0,0,24.544,32.4V25.584L30.67,19.4A1.407,1.407,0,0,0,30.61,17.445ZM17.7,26.605l1.5,1.5-2.252,1.051a.236.236,0,0,1-.33-.3Zm3.153.36c-.09.09-.18.15-.27.24L18.6,25.254a2.184,2.184,0,0,1,.24-.27L24.694,19.1l2.012,2.012ZM4.122,19.157a5.136,5.136,0,1,1,5.136,5.136A5.153,5.153,0,0,1,4.122,19.157ZM22.892,32.4a.994.994,0,0,1-.961.991H9.047a.974.974,0,0,1-.961-.991V25.764a7.367,7.367,0,0,0,1.171.12,6.767,6.767,0,0,0,6.757-6.757,6.619,6.619,0,0,0-.12-1.081h6.037a.984.984,0,0,1,.9.6l-5.106,5.166a7.416,7.416,0,0,0-1.442,2.042L15.2,28.2a1.825,1.825,0,0,0,.36,2.072,1.8,1.8,0,0,0,1.291.541,1.752,1.752,0,0,0,.781-.18l2.312-1.081a7.416,7.416,0,0,0,2.042-1.442l.9-.9Zm4.955-12.463-2.012-2.012,1.5-1.5,2.012,2.012Z" transform="translate(-2.5 -12.4)"/><path class="a" d="M20.659,28.609a.835.835,0,0,0-1.141.03l-1.982,2.132-.781-.811a.807.807,0,1,0-1.171,1.111l1.351,1.472a.864.864,0,0,0,.6.27.8.8,0,0,0,.6-.27l2.583-2.763A.843.843,0,0,0,20.659,28.609Z" transform="translate(-11.499 -23.594)"/></svg>