<svg xmlns="http://www.w3.org/2000/svg" width="153" height="104.04" viewBox="0 0 153 104.04"><defs><style>.a{fill:#d80303;}</style></defs><g transform="translate(-2.5 -17.7)"><g transform="translate(2.5 17.7)"><path class="a" d="M25.693,17.7A5.018,5.018,0,0,0,20.7,22.693v94.055a4.993,4.993,0,1,0,9.985,0V22.693A5.018,5.018,0,0,0,25.693,17.7Z" transform="translate(8.612 -17.7)"/><path class="a" d="M54.593,17.7H39.132A4.845,4.845,0,0,0,34.3,22.532v94.377a4.845,4.845,0,0,0,4.832,4.832H54.593a4.845,4.845,0,0,0,4.832-4.832V22.532A4.745,4.745,0,0,0,54.593,17.7Z" transform="translate(16.915 -17.7)"/><path class="a" d="M62.293,17.7A5.018,5.018,0,0,0,57.3,22.693v94.055a4.993,4.993,0,1,0,9.985,0V22.693A4.916,4.916,0,0,0,62.293,17.7Z" transform="translate(30.957 -17.7)"/><path class="a" d="M75.993,17.7A5.018,5.018,0,0,0,71,22.693v94.055a4.993,4.993,0,1,0,9.985,0V22.693A5.018,5.018,0,0,0,75.993,17.7Z" transform="translate(39.321 -17.7)"/><path class="a" d="M100.544,17.7H89.432A4.845,4.845,0,0,0,84.6,22.532v94.377a4.845,4.845,0,0,0,4.832,4.832h11.113a4.845,4.845,0,0,0,4.832-4.832V22.532A4.745,4.745,0,0,0,100.544,17.7Z" transform="translate(47.624 -17.7)"/><path class="a" d="M15.062,17.7H7.332A4.845,4.845,0,0,0,2.5,22.532v94.377a4.845,4.845,0,0,0,4.832,4.832h7.731a4.845,4.845,0,0,0,4.832-4.832V22.532A4.845,4.845,0,0,0,15.062,17.7Z" transform="translate(-2.5 -17.7)"/></g></g></svg>