<svg xmlns="http://www.w3.org/2000/svg" width="43.913" height="29.472" viewBox="0 0 43.913 29.472"><defs><style>.a,.b{fill:#33d89e;}.a{fill-rule:evenodd;}</style></defs><g transform="translate(81.532 324.5)"><g transform="translate(-62.5 -324.5)"><path class="a" d="M5.582,16.664a1.082,1.082,0,0,1,1.082-1.082h2.7V14.5h-2.7A2.164,2.164,0,0,0,4.5,16.664v2.7H5.582Zm0,15.145V29.1H4.5v2.7a2.164,2.164,0,0,0,2.164,2.164h2.7V32.89h-2.7A1.082,1.082,0,0,1,5.582,31.808Zm22.717,0a1.082,1.082,0,0,1-1.082,1.082h-2.7v1.082h2.7a2.164,2.164,0,0,0,2.164-2.164V29.1H28.3ZM27.217,14.5h-2.7v1.082h2.7A1.082,1.082,0,0,1,28.3,16.664v2.7h1.082v-2.7A2.164,2.164,0,0,0,27.217,14.5ZM5.582,24.236a.541.541,0,0,0,.541.541H27.758a.541.541,0,0,0,0-1.082H6.123A.541.541,0,0,0,5.582,24.236Zm8.654-6.491H13.154v4.868h1.082Zm-6.491,0v4.868H8.827V17.745Zm8.654,0H15.318v4.868H16.4Zm5.409,0H20.727v4.868h1.082Zm2.164,0H22.89v4.868h1.082Zm1.082,0v4.868h1.082V17.745Zm-12.981,0H9.909v4.868h2.164Zm7.572,0H17.481v4.868h2.164ZM13.154,30.727h1.082V25.859H13.154Zm-4.327,0V25.859H7.745v4.868Zm6.491,0H16.4V25.859H15.318Zm5.409,0h1.082V25.859H20.727Zm2.164,0h1.082V25.859H22.89Zm3.245,0V25.859H25.054v4.868Zm-16.227,0h2.164V25.859H9.909Zm7.572,0h2.164V25.859H17.481Z" transform="translate(-4.5 -14.5)"/></g></g><g transform="translate(0 12.259)"><path class="b" d="M41.345,23.127a.846.846,0,0,0,1.2,1.2,2.09,2.09,0,0,1,2.956,0,.846.846,0,0,0,1.2-1.2A3.8,3.8,0,0,0,41.345,23.127Z" transform="translate(-34.105 -18.489)"/><path class="b" d="M2.783,19.493a.854.854,0,0,0,1.2,0L7.9,15.576a7.321,7.321,0,1,0-1.2-1.2L2.783,18.3A.822.822,0,0,0,2.783,19.493Zm5.694-5.676a5.623,5.623,0,1,1,7.942,0A5.636,5.636,0,0,1,8.477,13.817Z" transform="translate(-2.525 -2.525)"/></g></svg>