<svg xmlns="http://www.w3.org/2000/svg" width="26.155" height="39.953" viewBox="0 0 26.155 39.953"><path d="M32.078,27.6a3.889,3.889,0,0,1,2.68,1.07c-.03-.024.269.223.336.276a1.2,1.2,0,0,0,.266.179c.1-.033.092-.025.1-.033a2.165,2.165,0,0,0,.187-.478c.043-.134.067-.21.093-.286.041-.123.079-.231.12-.339a3.943,3.943,0,0,1,4.519-2.56,2.569,2.569,0,0,0,.591.036c.072-.077.077-.086.076-.084a2.476,2.476,0,0,0-.127-.629,4.143,4.143,0,0,1,.135-3.055,3.934,3.934,0,0,1,1.861-1.945c.076-.041.151-.081.242-.128l.208-.106a1.9,1.9,0,0,0,.405-.242c.016-.109.017-.1.016-.1a1.5,1.5,0,0,0-.258-.291l-.305-.291a4.044,4.044,0,0,1-1.377-2.526,4.115,4.115,0,0,1,.675-2.905l.138-.238c.044-.076.076-.134.1-.186.1-.2.1-.185.069-.26-.1-.086-.223-.119-.552-.18a6.758,6.758,0,0,1-.933-.213,3.771,3.771,0,0,1-1.81-1.2,3.936,3.936,0,0,1-.512-.769,4.527,4.527,0,0,1-.458-2.179,2.565,2.565,0,0,0-.05-.579c-.106-.076-.084-.074-.182-.046a4.5,4.5,0,0,0-.536.212,3.871,3.871,0,0,1-2.938.285,3.919,3.919,0,0,1-2.205-1.7c-.063-.09-.255-.375-.249-.366a1.714,1.714,0,0,0-.273-.345c-.109,0-.1,0-.1,0a1.735,1.735,0,0,0-.27.343c.007-.01-.188.278-.252.37a3.92,3.92,0,0,1-2.206,1.7,3.874,3.874,0,0,1-2.942-.285,4.477,4.477,0,0,0-.535-.212c-.1-.028-.074-.03-.134.009a1.219,1.219,0,0,0-.094.608,4.422,4.422,0,0,1-.53,2.318,3.969,3.969,0,0,1-.443.638A3.776,3.776,0,0,1,22.84,12.08a6.558,6.558,0,0,1-.969.223,2.249,2.249,0,0,0-.52.126c-.059.125-.061.108.044.307.027.052.059.11.1.186l.138.238a4.118,4.118,0,0,1,.675,2.907,4.044,4.044,0,0,1-1.378,2.527l-.306.293a1.481,1.481,0,0,0-.258.289c.017.109.011.1.017.105a1.928,1.928,0,0,0,.409.245l.2.1c.09.046.164.085.238.126A3.929,3.929,0,0,1,23.1,21.7a4.142,4.142,0,0,1,.134,3.049,2.445,2.445,0,0,0-.128.633c.075.092.062.085.079.087a2.547,2.547,0,0,0,.6-.035A3.932,3.932,0,0,1,28.3,28c.04.1.077.21.117.33.025.074.049.149.091.279a2.21,2.21,0,0,0,.19.483.58.58,0,0,1,.1.035,1.207,1.207,0,0,0,.266-.179c.067-.053.365-.3.336-.276A3.888,3.888,0,0,1,32.078,27.6Zm0,1.407c-1.859,0-2.2,1.909-3.717,1.452s-.8-2.253-2.36-3.278-2.857.389-3.894-.836.517-2.338-.254-4.064-2.609-1.253-2.834-2.858,1.668-1.675,1.933-3.559-1.533-2.5-.875-3.973,2.285-.483,3.506-1.925.03-2.95,1.362-3.826,2.18.858,3.966.321S30.495,4,32.078,4s1.386,1.93,3.167,2.465,2.634-1.2,3.966-.321.148,2.392,1.362,3.826,2.848.45,3.506,1.925-1.14,2.091-.875,3.973,2.159,1.955,1.933,3.559-2.061,1.124-2.834,2.858.783,2.839-.254,4.064-2.327-.2-3.894.836-.841,2.822-2.36,3.278S33.937,29.012,32.078,29.012Zm.117,11.563h0l0,0-5.763,3.3a.535.535,0,0,1-.283.08.556.556,0,0,1-.55-.563V28.721a1.976,1.976,0,0,1,.14.3c.043.112.05.135.16.472a4.162,4.162,0,0,0,.8,1.559V42.416l5.5-3.248,0,0v0l5.5,3.248V28.2h1.1V43.39a.556.556,0,0,1-.55.563.535.535,0,0,1-.283-.08l-5.763-3.3Zm6.5-26.61-8.552,8.754a.541.541,0,0,1-.778,0l-3.887-3.979a.572.572,0,0,1,0-.8.541.541,0,0,1,.777,0l3.5,3.581,8.163-8.356a.541.541,0,0,1,.777,0A.572.572,0,0,1,38.7,13.964Z" transform="translate(-19 -4)"/></svg>