<svg xmlns="http://www.w3.org/2000/svg" width="30" height="23.478" viewBox="0 0 30 23.478"><defs><style>.a{fill:#fff;fill-rule:evenodd;}</style></defs><path class="a" d="M5.8,17.109a1.3,1.3,0,0,1,1.3-1.3H10.37V14.5H7.109A2.609,2.609,0,0,0,4.5,17.109V20.37H5.8Zm0,18.261V32.109H4.5V35.37a2.609,2.609,0,0,0,2.609,2.609H10.37v-1.3H7.109A1.3,1.3,0,0,1,5.8,35.37Zm27.391,0a1.3,1.3,0,0,1-1.3,1.3H28.63v1.3h3.261A2.609,2.609,0,0,0,34.5,35.37V32.109H33.2Zm-1.3-20.87H28.63v1.3h3.261a1.3,1.3,0,0,1,1.3,1.3V20.37h1.3V17.109A2.609,2.609,0,0,0,31.891,14.5ZM5.8,26.239a.652.652,0,0,0,.652.652H32.543a.652.652,0,0,0,0-1.3H6.457A.652.652,0,0,0,5.8,26.239Zm10.435-7.826h-1.3v5.87h1.3Zm-7.826,0v5.87h1.3v-5.87Zm10.435,0h-1.3v5.87h1.3Zm6.522,0h-1.3v5.87h1.3Zm2.609,0h-1.3v5.87h1.3Zm1.3,0v5.87h1.3v-5.87Zm-15.652,0H11.022v5.87H13.63Zm9.13,0H20.152v5.87h2.609ZM14.935,34.065h1.3V28.2h-1.3Zm-5.217,0V28.2h-1.3v5.87Zm7.826,0h1.3V28.2h-1.3Zm6.522,0h1.3V28.2h-1.3Zm2.609,0h1.3V28.2h-1.3Zm3.913,0V28.2h-1.3v5.87Zm-19.565,0H13.63V28.2H11.022Zm9.13,0h2.609V28.2H20.152Z" transform="translate(-4.5 -14.5)"/></svg>