<svg xmlns="http://www.w3.org/2000/svg" xmlns:xlink="http://www.w3.org/1999/xlink" width="60" height="60" viewBox="0 0 60 60"><defs><style>.a{fill:url(#a);}.b{fill:#fff;fill-rule:evenodd;}</style><linearGradient id="a" x1="0.36" x2="0.673" y2="1" gradientUnits="objectBoundingBox"><stop offset="0" stop-color="#33d89e"/><stop offset="1" stop-color="#8f89dd"/></linearGradient></defs><g transform="translate(-295 -20)"><circle class="a" cx="30" cy="30" r="30" transform="translate(295 20)"/></g><g transform="translate(11.198 15.285)"><path class="b" d="M6.135,17.77A1.635,1.635,0,0,1,7.77,16.135h4.087V14.5H7.77A3.27,3.27,0,0,0,4.5,17.77v4.087H6.135Zm0,22.889V36.572H4.5v4.087a3.27,3.27,0,0,0,3.27,3.27h4.087V42.294H7.77A1.635,1.635,0,0,1,6.135,40.659Zm34.334,0a1.635,1.635,0,0,1-1.635,1.635H34.747v1.635h4.087a3.27,3.27,0,0,0,3.27-3.27V36.572H40.469ZM38.834,14.5H34.747v1.635h4.087a1.635,1.635,0,0,1,1.635,1.635v4.087H42.1V17.77A3.27,3.27,0,0,0,38.834,14.5ZM6.135,29.215a.818.818,0,0,0,.817.817h32.7a.817.817,0,0,0,0-1.635H6.952A.818.818,0,0,0,6.135,29.215Zm13.08-9.81H17.58v7.357h1.635Zm-9.81,0v7.357H11.04V19.4Zm13.08,0H20.85v7.357h1.635Zm8.175,0H29.024v7.357h1.635Zm3.27,0H32.294v7.357h1.635Zm1.635,0v7.357H37.2V19.4Zm-19.62,0h-3.27v7.357h3.27Zm11.445,0H24.12v7.357h3.27Zm-9.81,19.62h1.635V31.667H17.58Zm-6.54,0V31.667H9.4v7.357Zm9.81,0h1.635V31.667H20.85Zm8.175,0h1.635V31.667H29.024Zm3.27,0h1.635V31.667H32.294Zm4.9,0V31.667H35.564v7.357Zm-24.524,0h3.27V31.667h-3.27Zm11.445,0h3.27V31.667H24.12Z" transform="translate(-4.5 -14.5)"/></g></svg>