<svg xmlns="http://www.w3.org/2000/svg" width="22" height="19.232" viewBox="0 0 22 19.232"><defs><style>.a{fill:none;stroke:#fff;stroke-width:2px;fill-rule:evenodd;}</style></defs><g transform="translate(1 1)"><path class="a" d="M36.571,31.548a5.035,5.035,0,0,0-7.189,0l-.16.163a5.885,5.885,0,0,0,0,8.239l6.444,6.535a2.626,2.626,0,0,0,3.747,0l6.444-6.535a5.882,5.882,0,0,0,0-8.239l-.16-.163a5.033,5.033,0,0,0-7.189,0l-.028.028a1.317,1.317,0,0,1-1.88,0Z" transform="translate(-27.539 -30.038)"/></g></svg>