<svg xmlns="http://www.w3.org/2000/svg" width="92" height="64" viewBox="0 0 92 64"><defs><style>.a{fill:#33d89e;}</style></defs><g transform="translate(-2 -16)"><path class="a" d="M88,16H8a6,6,0,0,0-6,6V74a6,6,0,0,0,6,6H68a2,2,0,0,0,0-4H28v-.5a2,2,0,0,0-4,0V76H8a2,2,0,0,1-2-2V22a2,2,0,0,1,2-2H24v1.5a2,2,0,0,0,4,0V20H88a2,2,0,0,1,2,2V74a2,2,0,0,1-2,2H78a2,2,0,0,0,0,4H88a6,6,0,0,0,6-6V22A6,6,0,0,0,88,16Z"/><path class="a" d="M68,49a7,7,0,1,0,7,7A7,7,0,0,0,68,49Zm0,10a3,3,0,1,1,3-3,3,3,0,0,1-3,3Z"/><path class="a" d="M52,47a7,7,0,1,0-7-7A7,7,0,0,0,52,47Zm0-10a3,3,0,1,1-3,3A3,3,0,0,1,52,37Z"/><path class="a" d="M47.94,61.75a2,2,0,0,0,1.41-.59L73.16,37.35a2,2,0,1,0-2.83-2.82l-23.8,23.8a2,2,0,0,0,1.41,3.42Z"/><path class="a" d="M28,26.41a2,2,0,0,0-4,0v4.91a2,2,0,0,0,4,0Z"/><path class="a" d="M28,36.23a2,2,0,0,0-4,0v4.91a2,2,0,0,0,4,0Z"/><path class="a" d="M28,46.05a2,2,0,0,0-4,0V51a2,2,0,0,0,4,0Z"/><path class="a" d="M28,55.86a2,2,0,0,0-4,0v4.91a2,2,0,0,0,4,0Z"/><path class="a" d="M26,63.68a2,2,0,0,0-2,2v4.91a2,2,0,0,0,4,0V65.68A2,2,0,0,0,26,63.68Z"/></g></svg>