<svg xmlns="http://www.w3.org/2000/svg" width="28.535" height="19.851" viewBox="0 0 28.535 19.851"><defs><style>.a{fill:#33d89e;}</style></defs><path class="a" d="M28.674,16H3.861A1.861,1.861,0,0,0,2,17.861V33.99a1.861,1.861,0,0,0,1.861,1.861h18.61a.62.62,0,1,0,0-1.241H10.064v-.155a.62.62,0,1,0-1.241,0v.155H3.861a.62.62,0,0,1-.62-.62V17.861a.62.62,0,0,1,.62-.62H8.824v.465a.62.62,0,1,0,1.241,0v-.465h18.61a.62.62,0,0,1,.62.62V33.99a.62.62,0,0,1-.62.62h-3.1a.62.62,0,1,0,0,1.241h3.1a1.861,1.861,0,0,0,1.861-1.861V17.861A1.861,1.861,0,0,0,28.674,16Z" transform="translate(-2 -16)"/><path class="a" d="M63.171,49a2.171,2.171,0,1,0,2.171,2.171A2.171,2.171,0,0,0,63.171,49Zm0,3.1a.93.93,0,1,1,.93-.93A.93.93,0,0,1,63.171,52.1Z" transform="translate(-42.7 -38.765)"/><path class="a" d="M47.171,37.342A2.171,2.171,0,1,0,45,35.171,2.171,2.171,0,0,0,47.171,37.342Zm0-3.1a.93.93,0,1,1-.93.93A.93.93,0,0,1,47.171,34.241Z" transform="translate(-31.663 -27.727)"/><path class="a" d="M46.559,42.518A.62.62,0,0,0,47,42.335l7.385-7.385a.62.62,0,1,0-.878-.875l-7.382,7.382a.62.62,0,0,0,.437,1.061Z" transform="translate(-32.31 -28.328)"/><path class="a" d="M25.241,25.03a.62.62,0,1,0-1.241,0v1.523a.62.62,0,1,0,1.241,0Z" transform="translate(-17.176 -21.802)"/><path class="a" d="M25.241,34.85a.62.62,0,0,0-1.241,0v1.523a.62.62,0,1,0,1.241,0Z" transform="translate(-17.176 -28.576)"/><path class="a" d="M25.241,44.67a.62.62,0,0,0-1.241,0v1.535a.62.62,0,1,0,1.241,0Z" transform="translate(-17.176 -35.35)"/><path class="a" d="M25.241,54.48a.62.62,0,1,0-1.241,0V56a.62.62,0,1,0,1.241,0Z" transform="translate(-17.176 -42.117)"/><path class="a" d="M24.62,63.68a.62.62,0,0,0-.62.62v1.523a.62.62,0,0,0,1.241,0V64.3A.62.62,0,0,0,24.62,63.68Z" transform="translate(-17.176 -48.891)"/></svg>