<svg xmlns="http://www.w3.org/2000/svg" width="29.47" height="20.501" viewBox="0 0 29.47 20.501"><defs><style>.a{fill:#8f89dd;}</style></defs><path class="a" d="M29.548,16H3.922A1.922,1.922,0,0,0,2,17.922V34.579A1.922,1.922,0,0,0,3.922,36.5h19.22a.641.641,0,1,0,0-1.281H10.329v-.16a.641.641,0,0,0-1.281,0v.16H3.922a.641.641,0,0,1-.641-.641V17.922a.641.641,0,0,1,.641-.641H9.047v.48a.641.641,0,1,0,1.281,0v-.48h19.22a.641.641,0,0,1,.641.641V34.579a.641.641,0,0,1-.641.641h-3.2a.641.641,0,0,0,0,1.281h3.2a1.922,1.922,0,0,0,1.922-1.922V17.922A1.922,1.922,0,0,0,29.548,16Z" transform="translate(-2 -16)"/><path class="a" d="M63.242,49a2.242,2.242,0,1,0,2.242,2.242A2.242,2.242,0,0,0,63.242,49Zm0,3.2a.961.961,0,1,1,.961-.961A.961.961,0,0,1,63.242,52.2Z" transform="translate(-42.101 -38.429)"/><path class="a" d="M47.242,37.485A2.242,2.242,0,1,0,45,35.242,2.242,2.242,0,0,0,47.242,37.485Zm0-3.2a.961.961,0,1,1-.961.961A.961.961,0,0,1,47.242,34.281Z" transform="translate(-31.226 -27.554)"/><path class="a" d="M46.58,42.8a.641.641,0,0,0,.452-.189l7.627-7.627a.641.641,0,1,0-.907-.9l-7.624,7.624a.641.641,0,0,0,.452,1.1Z" transform="translate(-31.864 -28.146)"/><path class="a" d="M25.281,25.051a.641.641,0,0,0-1.281,0v1.573a.641.641,0,0,0,1.281,0Z" transform="translate(-16.953 -21.716)"/><path class="a" d="M25.281,34.871a.641.641,0,0,0-1.281,0v1.573a.641.641,0,0,0,1.281,0Z" transform="translate(-16.953 -28.39)"/><path class="a" d="M25.281,44.691a.641.641,0,0,0-1.281,0v1.586a.641.641,0,0,0,1.281,0Z" transform="translate(-16.953 -35.065)"/><path class="a" d="M25.281,54.5A.641.641,0,0,0,24,54.5v1.573a.641.641,0,0,0,1.281,0Z" transform="translate(-16.953 -41.732)"/><path class="a" d="M24.641,63.68a.641.641,0,0,0-.641.641v1.573a.641.641,0,0,0,1.281,0V64.321A.641.641,0,0,0,24.641,63.68Z" transform="translate(-16.953 -48.407)"/></svg>