<svg xmlns="http://www.w3.org/2000/svg" width="18.967" height="23.704" viewBox="0 0 18.967 23.704"><defs><style>.a{fill:#33d89e;}</style></defs><path class="a" d="M34.121,46.29H16.831a.837.837,0,0,1-.839-.835c0-.02,0-.04,0-.061L17.11,29.778A.837.837,0,0,1,17.947,29H33.006a.837.837,0,0,1,.837.778l1.115,15.617a.837.837,0,0,1-.776.893ZM17.729,44.617H33.223l-1-13.943h-13.5Z" transform="translate(-15.993 -22.586)"/><path class="a" d="M41.645,11.577a.837.837,0,0,1-.837-.837,3.068,3.068,0,1,0-6.135,0,.837.837,0,1,1-1.673,0,4.741,4.741,0,1,1,9.481,0A.837.837,0,0,1,41.645,11.577Z" transform="translate(-28.257 -6)"/><path class="a" d="M33.837,28.366A.837.837,0,0,1,33,27.529V20.837a.837.837,0,1,1,1.673,0v6.693A.837.837,0,0,1,33.837,28.366Z" transform="translate(-28.257 -16.096)"/><path class="a" d="M61.837,28.366A.837.837,0,0,1,61,27.529V20.837a.837.837,0,0,1,1.673,0v6.693A.837.837,0,0,1,61.837,28.366Z" transform="translate(-48.449 -16.096)"/></svg>