<svg xmlns="http://www.w3.org/2000/svg" width="28.596" height="34.315" viewBox="0 0 28.596 34.315"><defs><style>.a{fill:#707070;}</style></defs><path class="a" d="M86.3,16H71.435a2.863,2.863,0,0,0-2.86,2.86v1.716H66.86A2.863,2.863,0,0,0,64,23.435v24.02a2.863,2.863,0,0,0,2.86,2.86h18.3a2.863,2.863,0,0,0,2.86-2.86V45.74h1.716a2.863,2.863,0,0,0,2.86-2.86V22.291a.572.572,0,0,0-.168-.4l-5.719-5.719A.572.572,0,0,0,86.3,16Zm.572,31.455a1.718,1.718,0,0,1-1.716,1.716H66.86a1.718,1.718,0,0,1-1.716-1.716V23.435a1.718,1.718,0,0,1,1.716-1.716h14.3v2.86a2.863,2.863,0,0,0,2.86,2.86h2.86ZM82.3,24.579V22.528l3.767,3.767H84.017A1.718,1.718,0,0,1,82.3,24.579Zm9.151,18.3A1.718,1.718,0,0,1,89.736,44.6H88.02V26.866a.572.572,0,0,0-.168-.4l-5.719-5.719a.572.572,0,0,0-.4-.168H69.719V18.86a1.718,1.718,0,0,1,1.716-1.716h14.3V20a2.863,2.863,0,0,0,2.86,2.86h2.86ZM86.877,17.953l3.767,3.767H88.592A1.718,1.718,0,0,1,86.877,20Z" transform="translate(-64 -16)"/><path class="a" d="M192.572,208a.572.572,0,1,0,0,1.144h10.294a.572.572,0,0,0,0-1.144Z" transform="translate(-182.849 -194.274)"/><path class="a" d="M112.572,257.144h9.151a.572.572,0,0,0,0-1.144h-9.151a.572.572,0,0,0,0,1.144Z" transform="translate(-108.569 -238.843)"/><path class="a" d="M247.435,304h-6.863a.572.572,0,1,0,0,1.144h6.863a.572.572,0,1,0,0-1.144Z" transform="translate(-227.418 -283.411)"/><path class="a" d="M112.572,353.144h10.294a.572.572,0,1,0,0-1.144H112.572a.572.572,0,1,0,0,1.144Z" transform="translate(-108.569 -327.98)"/><path class="a" d="M112.572,209.144H116A.572.572,0,1,0,116,208h-3.431a.572.572,0,1,0,0,1.144Z" transform="translate(-108.569 -194.274)"/><path class="a" d="M277.147,256h-4.575a.572.572,0,0,0,0,1.144h4.575a.572.572,0,0,0,0-1.144Z" transform="translate(-257.13 -238.843)"/><path class="a" d="M112.572,305.144h6.863a.572.572,0,1,0,0-1.144h-6.863a.572.572,0,1,0,0,1.144Z" transform="translate(-108.569 -283.411)"/><path class="a" d="M292,352h-3.432a.572.572,0,0,0,0,1.144H292A.572.572,0,1,0,292,352Z" transform="translate(-271.986 -327.98)"/><path class="a" d="M116,400h-3.431a.572.572,0,1,0,0,1.144H116A.572.572,0,1,0,116,400Z" transform="translate(-108.569 -372.548)"/><path class="a" d="M112.572,161.144h6.863a.572.572,0,1,0,0-1.144h-6.863a.572.572,0,1,0,0,1.144Z" transform="translate(-108.569 -149.706)"/><path class="a" d="M198.291,400h-5.719a.572.572,0,1,0,0,1.144h5.719a.572.572,0,1,0,0-1.144Z" transform="translate(-182.849 -372.548)"/><path class="a" d="M306.86,400h-2.288a.572.572,0,1,0,0,1.144h2.288a.572.572,0,0,0,0-1.144Z" transform="translate(-286.843 -372.548)"/></svg>