<svg xmlns="http://www.w3.org/2000/svg" xmlns:xlink="http://www.w3.org/1999/xlink" width="19.718" height="45.594" viewBox="0 0 19.718 45.594"><defs><style>.a{fill:url(#a);}</style><linearGradient id="a" x1="0.5" x2="0.5" y2="1" gradientUnits="objectBoundingBox"><stop offset="0" stop-color="#33d89e"/><stop offset="1" stop-color="#8f89dd"/></linearGradient></defs><path class="a" d="M16.594,7.924V3.265A1.264,1.264,0,0,0,15.328,2H8.39A1.264,1.264,0,0,0,7.125,3.265V7.924L2.233,14.745A1.2,1.2,0,0,0,2,15.481V46.328a1.264,1.264,0,0,0,1.265,1.265H20.453a1.264,1.264,0,0,0,1.265-1.265V15.481a1.279,1.279,0,0,0-.233-.736ZM9.656,4.531h4.4V7.062h-4.4ZM9.045,9.6h5.636l3.312,4.613H5.734ZM19.187,45.063H4.531V26.879H7.062a1.265,1.265,0,0,0,0-2.531H4.531V21.817H9.593a1.265,1.265,0,1,0,0-2.531H4.531V16.755H19.187Z" transform="translate(-2 -2)"/><path class="a" d="M59.1,280.879a4.73,4.73,0,0,0,9.46,0c0-2.172-2.854-6.049-3.734-7.189a1.32,1.32,0,0,0-2.01,0C61.954,274.829,59.1,278.707,59.1,280.879Zm4.739-4.254c1.185,1.732,2.2,3.563,2.2,4.254a2.2,2.2,0,1,1-4.4,0C61.631,280.187,62.654,278.348,63.839,276.624Z" transform="translate(-53.975 -248.882)"/></svg>