<svg xmlns="http://www.w3.org/2000/svg" width="17.684" height="17.01" viewBox="0 0 17.684 17.01"><defs><style>.a{fill:#fff;}</style></defs><path class="a" d="M11.864,3.99c-.022,0-.044,0-.065,0h-.005a.679.679,0,0,0-.488.252L5.261,9.685,3.224,11.517a.68.68,0,1,0,.911,1.011l.224-.2v5.954A11.608,11.608,0,0,0,4.4,19.532a1.615,1.615,0,0,0,.418,1.011,1.615,1.615,0,0,0,1.011.42A11.629,11.629,0,0,0,7.081,21h.68a11.629,11.629,0,0,0,1.254-.037,1.615,1.615,0,0,0,1.011-.42,1.62,1.62,0,0,0,.418-1.011,11.786,11.786,0,0,0,.037-1.253v-1.36c0-.508,0-.881.028-1.1a1.062,1.062,0,0,1,.036-.2,1,1,0,0,1,.2-.036c.22-.025.592-.028,1.1-.028s.881,0,1.1.028a1,1,0,0,1,.2.036,1.062,1.062,0,0,1,.036.2c.024.22.028.593.028,1.1v1.36a11.829,11.829,0,0,0,.037,1.254,1.432,1.432,0,0,0,1.431,1.429A11.608,11.608,0,0,0,15.922,21h.68a11.635,11.635,0,0,0,1.254-.037,1.43,1.43,0,0,0,1.429-1.43,11.786,11.786,0,0,0,.037-1.253V12.326l.224.2a.68.68,0,1,0,.911-1.011h0L18.423,9.685,12.381,4.246h0a.68.68,0,0,0-.516-.255Zm-.022,1.6L14.61,8.084,17.515,10.7a1.361,1.361,0,0,1,.448,1.009v6.573c0,.508,0,.881-.028,1.1a1.062,1.062,0,0,1-.036.2,1,1,0,0,1-.2.036c-.22.025-.592.028-1.1.028h-.68c-.509,0-.881,0-1.1-.028a1.062,1.062,0,0,1-.2-.036,1,1,0,0,1-.036-.2c-.025-.22-.028-.592-.028-1.1v-1.36a11.786,11.786,0,0,0-.037-1.253,1.43,1.43,0,0,0-1.429-1.43,11.628,11.628,0,0,0-1.254-.037,11.628,11.628,0,0,0-1.254.037,1.43,1.43,0,0,0-1.429,1.43,11.608,11.608,0,0,0-.037,1.253v1.36c0,.508,0,.881-.028,1.1a1.062,1.062,0,0,1-.036.2,1,1,0,0,1-.2.036c-.22.025-.592.028-1.1.028h-.68c-.509,0-.881,0-1.1-.028a1,1,0,0,1-.2-.036,1.062,1.062,0,0,1-.036-.2c-.024-.22-.028-.593-.028-1.1V11.707a1.358,1.358,0,0,1,.45-1.011l2.9-2.612,2.768-2.491Z" transform="translate(-3 -3.99)"/></svg>