<svg xmlns="http://www.w3.org/2000/svg" width="17.5" height="17.5" viewBox="0 0 17.5 17.5"><defs><style>.a{fill:#707070;}</style></defs><path class="a" d="M27.825,6.814a.494.494,0,0,0,.7-.7h0L22.585.176a.494.494,0,0,0-.7.7h0Z" transform="translate(-11.169 -0.031)"/><path class="a" d="M15.2,9.863a.494.494,0,0,0,.7-.7h0L9.959,3.225a.495.495,0,0,0-.7.7h0l.392.392L1.094,12.875a3.644,3.644,0,0,0,5.153,5.153L14.806,9.47Zm-9.65,7.467a2.655,2.655,0,0,1-3.755-3.755L7.035,8.333a2.2,2.2,0,0,1,1.8,1.043,2.112,2.112,0,0,1,.3,1.013A2.288,2.288,0,0,0,10.48,12.4ZM11.2,11.678c-1.012-.585-1.044-.9-1.089-1.379A3.08,3.08,0,0,0,7.883,7.485l2.469-2.469,3.755,3.755Z" transform="translate(-0.027 -1.595)"/><path class="a" d="M32.373,21.843l-1.385-2.4-1.4,2.422a1.6,1.6,0,0,0-.127.292,1.671,1.671,0,0,0-.077.492v.057a1.6,1.6,0,1,0,2.989-.865Zm-1.386,1.429a.623.623,0,0,1-.621-.621.73.73,0,0,1,.034-.207.57.57,0,0,1,.044-.1l.542-.937.5.876.039.063a.6.6,0,0,1,.077.3.622.622,0,0,1-.621.621Z" transform="translate(-15.09 -9.992)"/></svg>