<svg xmlns="http://www.w3.org/2000/svg" width="89.461" height="89.095" viewBox="0 0 89.461 89.095"><defs><style>.a{fill:#d80303;}</style></defs><path class="a" d="M53.039,34.92a2.546,2.546,0,0,0,3.6-3.6h0L26.086.777a2.546,2.546,0,1,0-3.6,3.6h0Z" transform="translate(32.043 -0.031)"/><path class="a" d="M80.032,38.849a2.61,2.61,0,0,0,3.691-3.691h0L52.4,3.845a2.61,2.61,0,1,0-3.691,3.691h0L50.774,9.6,5.655,54.733A19.214,19.214,0,1,0,32.826,81.907L77.955,36.777ZM29.15,78.226a14,14,0,1,1-19.8-19.8L36.98,30.781a11.6,11.6,0,0,1,9.491,5.5,11.138,11.138,0,0,1,1.582,5.342,12.065,12.065,0,0,0,7.092,10.6ZM58.941,48.42c-5.336-3.085-5.5-4.746-5.742-7.272A16.242,16.242,0,0,0,41.452,26.309L54.47,13.289l19.8,19.8Z" transform="translate(-0.027 1.559)"/><path class="a" d="M39.648,27.685l-4.756-8.242L30.085,27.76a5.494,5.494,0,0,0-.436,1,5.738,5.738,0,0,0-.264,1.69v.2a5.494,5.494,0,1,0,10.264-2.97Zm-4.76,4.907a2.139,2.139,0,0,1-2.133-2.133,2.507,2.507,0,0,1,.117-.711,1.958,1.958,0,0,1,.151-.343l1.861-3.218L36.6,29.2l.134.216A2.061,2.061,0,0,1,37,30.442a2.136,2.136,0,0,1-2.133,2.133Z" transform="translate(49.094 39.767)"/></svg>