<svg xmlns="http://www.w3.org/2000/svg" xmlns:xlink="http://www.w3.org/1999/xlink" width="31.283" height="12.766" viewBox="0 0 31.283 12.766"><defs><style>.a{fill:#333132;}.b{fill:url(#a);}</style><linearGradient id="a" x1="0.5" y1="1" x2="0.5" gradientUnits="objectBoundingBox"><stop offset="0" stop-color="#8f89dd"/><stop offset="1" stop-color="#33d89e"/></linearGradient></defs><path class="a" d="M338.845,132.682a.8.8,0,0,1-.591.238.763.763,0,0,1-.57-.238.814.814,0,0,1-.231-.591V123.7a.812.812,0,0,1,.828-.828.764.764,0,0,1,.57.238.815.815,0,0,1,.231.591v8.393A.8.8,0,0,1,338.845,132.682Z" transform="translate(-337.453 -122.87)"/><path class="b" d="M352.4,144.758a.8.8,0,0,1-.591.238.763.763,0,0,1-.57-.238.814.814,0,0,1-.231-.591v-5.609a.812.812,0,0,1,.828-.828.764.764,0,0,1,.57.238.814.814,0,0,1,.231.591v5.609A.8.8,0,0,1,352.4,144.758Z" transform="translate(-348.469 -134.946)"/><path class="a" d="M374.8,137.827a4.265,4.265,0,0,1,.516,2.275v3.477a.814.814,0,0,1-.231.591.837.837,0,0,1-1.168,0,.814.814,0,0,1-.231-.591V140.1a2.059,2.059,0,0,0-.292-1.175,1.152,1.152,0,0,0-1.025-.428,1.551,1.551,0,0,0-1.188.455,1.608,1.608,0,0,0-.428,1.147v3.477a.814.814,0,0,1-.231.591.837.837,0,0,1-1.168,0,.813.813,0,0,1-.231-.591V140.1a2.061,2.061,0,0,0-.292-1.175,1.152,1.152,0,0,0-1.025-.428,1.552,1.552,0,0,0-1.188.455,1.608,1.608,0,0,0-.428,1.147v3.477a.814.814,0,0,1-.231.591.837.837,0,0,1-1.168,0,.814.814,0,0,1-.231-.591v-5.609a.814.814,0,0,1,.231-.591.836.836,0,0,1,1.168,0,.815.815,0,0,1,.231.591v.217a3.317,3.317,0,0,1,.93-.835,2.35,2.35,0,0,1,1.256-.346,2.056,2.056,0,0,1,2.186,1.494,3.2,3.2,0,0,1,.944-1.032,2.366,2.366,0,0,1,1.433-.462A2.022,2.022,0,0,1,374.8,137.827Z" transform="translate(-359.484 -134.357)"/><path class="a" d="M430.841,137.487a3.381,3.381,0,0,1,1.2,1.338,4.176,4.176,0,0,1,.441,1.942,4.27,4.27,0,0,1-.435,1.949,3.338,3.338,0,0,1-1.188,1.345,3.024,3.024,0,0,1-1.664.482,2.912,2.912,0,0,1-1.229-.265,3.256,3.256,0,0,1-.958-.645v2.662a.815.815,0,0,1-.231.591.78.78,0,0,1-.584.238.792.792,0,0,1-.584-.231.809.809,0,0,1-.231-.6v-8.325a.814.814,0,0,1,.231-.591.836.836,0,0,1,1.168,0,.815.815,0,0,1,.231.591v.054a2.813,2.813,0,0,1,.91-.713,2.6,2.6,0,0,1,1.222-.306A3.106,3.106,0,0,1,430.841,137.487Zm-.475,4.909a2.667,2.667,0,0,0,.007-3.253,1.794,1.794,0,0,0-1.433-.645,1.814,1.814,0,0,0-1.44.645,2.4,2.4,0,0,0-.557,1.623,2.421,2.421,0,0,0,.557,1.63,1.9,1.9,0,0,0,2.865,0Z" transform="translate(-408.909 -134.357)"/><path class="a" d="M471.984,137.487a3.38,3.38,0,0,1,1.2,1.338,4.175,4.175,0,0,1,.441,1.942,4.27,4.27,0,0,1-.435,1.949A3.338,3.338,0,0,1,472,144.06a3.024,3.024,0,0,1-1.664.482,2.913,2.913,0,0,1-1.229-.265,3.256,3.256,0,0,1-.958-.645v2.662a.815.815,0,0,1-.231.591.78.78,0,0,1-.584.238.792.792,0,0,1-.584-.231.809.809,0,0,1-.231-.6v-8.325a.814.814,0,0,1,.231-.591.836.836,0,0,1,1.168,0,.815.815,0,0,1,.231.591v.054a2.816,2.816,0,0,1,.91-.713,2.6,2.6,0,0,1,1.222-.306A3.106,3.106,0,0,1,471.984,137.487Zm-.475,4.909a2.666,2.666,0,0,0,.007-3.253,1.794,1.794,0,0,0-1.433-.645,1.814,1.814,0,0,0-1.44.645,2.4,2.4,0,0,0-.557,1.623,2.421,2.421,0,0,0,.557,1.63,1.9,1.9,0,0,0,2.866,0Z" transform="translate(-442.344 -134.357)"/><circle class="a" cx="0.824" cy="0.824" r="0.824" transform="translate(2.521)"/></svg>