<svg xmlns="http://www.w3.org/2000/svg" xmlns:xlink="http://www.w3.org/1999/xlink" width="166.984" height="82.7" viewBox="0 0 166.984 82.7"><defs><style>.a{fill:#333132;}.b{fill:url(#a);}.c{fill:url(#b);}</style><linearGradient id="a" x1="0.5" y1="1" x2="0.5" gradientUnits="objectBoundingBox"><stop offset="0" stop-color="#8f89dd"/><stop offset="1" stop-color="#33d89e"/></linearGradient><linearGradient id="b" x1="0.5" y1="1" x2="0.5" gradientUnits="objectBoundingBox"><stop offset="0" stop-color="#8e89dc"/><stop offset="1" stop-color="#34d69e"/></linearGradient></defs><g transform="translate(-337.453 -122.87)"><path class="a" d="M344.883,175.244a4.281,4.281,0,0,1-3.153,1.268,4.073,4.073,0,0,1-3.045-1.268,4.343,4.343,0,0,1-1.232-3.154v-44.8a4.332,4.332,0,0,1,4.422-4.421,4.079,4.079,0,0,1,3.044,1.268,4.351,4.351,0,0,1,1.232,3.153v44.8A4.281,4.281,0,0,1,344.883,175.244Z"/><path class="b" d="M358.438,175.244a4.281,4.281,0,0,1-3.153,1.268,4.073,4.073,0,0,1-3.045-1.268,4.343,4.343,0,0,1-1.232-3.154V142.152a4.334,4.334,0,0,1,4.422-4.422A4.08,4.08,0,0,1,358.474,139a4.35,4.35,0,0,1,1.232,3.153V172.09A4.281,4.281,0,0,1,358.438,175.244Z"/><path class="a" d="M419.22,141.391q2.754,4.387,2.755,12.142V172.09a4.344,4.344,0,0,1-1.233,3.154,4.465,4.465,0,0,1-6.234,0,4.343,4.343,0,0,1-1.232-3.154V153.533a10.991,10.991,0,0,0-1.559-6.27q-1.56-2.284-5.473-2.284a8.28,8.28,0,0,0-6.342,2.429,8.585,8.585,0,0,0-2.284,6.125V172.09a4.347,4.347,0,0,1-1.232,3.154,4.465,4.465,0,0,1-6.234,0,4.34,4.34,0,0,1-1.233-3.154V153.533a11,11,0,0,0-1.558-6.27q-1.56-2.284-5.473-2.284a8.283,8.283,0,0,0-6.343,2.429,8.585,8.585,0,0,0-2.284,6.125V172.09a4.347,4.347,0,0,1-1.232,3.154,4.465,4.465,0,0,1-6.234,0,4.343,4.343,0,0,1-1.232-3.154V142.152A4.345,4.345,0,0,1,365.8,139a4.463,4.463,0,0,1,6.234,0,4.35,4.35,0,0,1,1.232,3.153v1.16a17.706,17.706,0,0,1,4.966-4.458,12.547,12.547,0,0,1,6.705-1.849q9.133,0,11.671,7.974a17.064,17.064,0,0,1,5.038-5.509,12.631,12.631,0,0,1,7.648-2.465Q416.465,137.005,419.22,141.391Z"/><path class="a" d="M454.522,139.579a18.048,18.048,0,0,1,6.416,7.14,22.287,22.287,0,0,1,2.356,10.366,22.793,22.793,0,0,1-2.32,10.4,17.818,17.818,0,0,1-6.343,7.177,16.143,16.143,0,0,1-8.88,2.573,15.544,15.544,0,0,1-6.56-1.413,17.377,17.377,0,0,1-5.111-3.444v14.208a4.352,4.352,0,0,1-1.232,3.154,4.165,4.165,0,0,1-3.117,1.268,4.225,4.225,0,0,1-3.117-1.232,4.317,4.317,0,0,1-1.232-3.19V142.152A4.345,4.345,0,0,1,426.614,139a4.463,4.463,0,0,1,6.234,0,4.35,4.35,0,0,1,1.232,3.153v.29a15.017,15.017,0,0,1,4.857-3.806,13.887,13.887,0,0,1,6.524-1.631A16.578,16.578,0,0,1,454.522,139.579Zm-2.537,26.205a14.233,14.233,0,0,0,.036-17.362,9.576,9.576,0,0,0-7.647-3.443,9.683,9.683,0,0,0-7.684,3.443,12.785,12.785,0,0,0-2.972,8.663,12.924,12.924,0,0,0,2.972,8.7,10.145,10.145,0,0,0,15.295,0Z"/><path class="a" d="M495.665,139.579a18.04,18.04,0,0,1,6.416,7.14,22.287,22.287,0,0,1,2.356,10.366,22.793,22.793,0,0,1-2.32,10.4,17.817,17.817,0,0,1-6.343,7.177,16.143,16.143,0,0,1-8.88,2.573,15.547,15.547,0,0,1-6.56-1.413,17.376,17.376,0,0,1-5.111-3.444v14.208a4.352,4.352,0,0,1-1.232,3.154,4.165,4.165,0,0,1-3.117,1.268,4.225,4.225,0,0,1-3.117-1.232,4.317,4.317,0,0,1-1.232-3.19V142.152A4.346,4.346,0,0,1,467.757,139a4.463,4.463,0,0,1,6.234,0,4.35,4.35,0,0,1,1.232,3.153v.29a15.029,15.029,0,0,1,4.857-3.806,13.89,13.89,0,0,1,6.524-1.631A16.578,16.578,0,0,1,495.665,139.579Zm-2.536,26.205a14.233,14.233,0,0,0,.036-17.362,9.578,9.578,0,0,0-7.648-3.443,9.683,9.683,0,0,0-7.684,3.443,12.785,12.785,0,0,0-2.972,8.663,12.924,12.924,0,0,0,2.972,8.7,10.146,10.146,0,0,0,15.3,0Z"/><circle class="a" cx="4.398" cy="4.398" r="4.398" transform="translate(350.91 122.87)"/><path class="a" d="M339.427,205.264a4.907,4.907,0,0,1-1.6-.994.8.8,0,0,1-.313-.613.681.681,0,0,1,.209-.486.665.665,0,0,1,.493-.217.618.618,0,0,1,.434.165,4.179,4.179,0,0,0,1.233.815,3.767,3.767,0,0,0,1.442.261,2.807,2.807,0,0,0,1.593-.433,1.28,1.28,0,0,0,.65-1.092,1.4,1.4,0,0,0-.65-1.2,5.8,5.8,0,0,0-1.936-.71,5.147,5.147,0,0,1-2.37-1.032,2.489,2.489,0,0,1-.83-1.988,2.637,2.637,0,0,1,.464-1.547,2.979,2.979,0,0,1,1.285-1.024,4.593,4.593,0,0,1,1.854-.359,5.085,5.085,0,0,1,1.749.3,3.694,3.694,0,0,1,1.331.792.857.857,0,0,1,.344.643.674.674,0,0,1-.2.479.651.651,0,0,1-.486.209.5.5,0,0,1-.344-.12,3.111,3.111,0,0,0-1.076-.658,3.619,3.619,0,0,0-1.316-.269,2.744,2.744,0,0,0-1.592.411,1.325,1.325,0,0,0,0,2.205,5.526,5.526,0,0,0,1.757.658,9.375,9.375,0,0,1,1.906.6,2.7,2.7,0,0,1,1.144.957,2.869,2.869,0,0,1,.4,1.6,2.56,2.56,0,0,1-.486,1.54,3.19,3.19,0,0,1-1.323,1.047,4.46,4.46,0,0,1-1.838.373A5.6,5.6,0,0,1,339.427,205.264Z"/><path class="a" d="M353.053,197.8a.7.7,0,0,1,.2.508v3.977a3.28,3.28,0,1,1-6.548,0V198.3a.708.708,0,0,1,.2-.508.664.664,0,0,1,.5-.21.683.683,0,0,1,.516.21.7.7,0,0,1,.2.508v3.977q0,1.958,1.839,1.958a1.853,1.853,0,0,0,1.391-.493,2.03,2.03,0,0,0,.477-1.465V198.3a.708.708,0,0,1,.2-.508.668.668,0,0,1,.5-.21A.686.686,0,0,1,353.053,197.8Z"/><path class="a" d="M362.246,197.685a.714.714,0,0,1,.2.53V204.7a.7.7,0,0,1-.2.508.684.684,0,0,1-.515.21.673.673,0,0,1-.509-.2.714.714,0,0,1-.195-.516v-.389a3.167,3.167,0,0,1-1.061.89,2.985,2.985,0,0,1-1.449.366,3.388,3.388,0,0,1-1.847-.523,3.605,3.605,0,0,1-1.3-1.457,4.929,4.929,0,0,1,0-4.2,3.62,3.62,0,0,1,1.293-1.458,3.311,3.311,0,0,1,1.81-.523,3.345,3.345,0,0,1,1.472.329,3.038,3.038,0,0,1,1.083.837v-.359a.743.743,0,0,1,.195-.523.664.664,0,0,1,.509-.209A.7.7,0,0,1,362.246,197.685Zm-2.317,6.211a2.429,2.429,0,0,0,.852-.986,3.2,3.2,0,0,0,.307-1.421,3.164,3.164,0,0,0-.307-1.4,2.492,2.492,0,0,0-.852-.994,2.33,2.33,0,0,0-2.5-.007,2.417,2.417,0,0,0-.853.986,3.45,3.45,0,0,0,0,2.841,2.423,2.423,0,0,0,.853.986,2.349,2.349,0,0,0,2.5,0Z"/><path class="a" d="M375.35,201.661a.717.717,0,0,1-.493.187h-5.263a2.6,2.6,0,0,0,.83,1.749,2.537,2.537,0,0,0,1.771.658,2.761,2.761,0,0,0,1.166-.21,2.893,2.893,0,0,0,.792-.538.85.85,0,0,1,.434-.134.566.566,0,0,1,.426.179.588.588,0,0,1,.173.419.74.74,0,0,1-.3.568,3.524,3.524,0,0,1-1.151.733,3.777,3.777,0,0,1-1.465.3,4.329,4.329,0,0,1-2.13-.508,3.535,3.535,0,0,1-1.42-1.42,4.211,4.211,0,0,1-.5-2.063,4.546,4.546,0,0,1,.516-2.205,3.715,3.715,0,0,1,1.36-1.457,3.5,3.5,0,0,1,3.61-.016,3.761,3.761,0,0,1,1.346,1.361,3.879,3.879,0,0,1,.523,1.943A.639.639,0,0,1,375.35,201.661Zm-4.889-2.467a2.319,2.319,0,0,0-.807,1.458h4.41v-.119a1.828,1.828,0,0,0-.71-1.3,2.248,2.248,0,0,0-1.443-.508A2.317,2.317,0,0,0,370.461,199.194Z"/><path class="a" d="M376.635,203.792a.6.6,0,0,1,.313-.509.585.585,0,0,1,.344-.1.685.685,0,0,1,.494.224,3.145,3.145,0,0,0,.964.762,2.758,2.758,0,0,0,1.234.254,2.1,2.1,0,0,0,1-.261.93.93,0,0,0-.007-1.577,5.025,5.025,0,0,0-1.293-.494,9.346,9.346,0,0,1-1.391-.471,2.481,2.481,0,0,1-.934-.717,2.1,2.1,0,0,1,0-2.415,2.54,2.54,0,0,1,1.016-.792,3.358,3.358,0,0,1,1.383-.284,4.017,4.017,0,0,1,1.428.269,2.679,2.679,0,0,1,1.158.823.659.659,0,0,1,.18.433.648.648,0,0,1-.24.464.537.537,0,0,1-.373.134.56.56,0,0,1-.433-.179,2.111,2.111,0,0,0-.771-.554,2.557,2.557,0,0,0-1.009-.194,1.873,1.873,0,0,0-.964.232.835.835,0,0,0-.4.785.868.868,0,0,0,.456.777,5.8,5.8,0,0,0,1.353.493,8.438,8.438,0,0,1,1.315.449,2.29,2.29,0,0,1,.882.71,1.982,1.982,0,0,1,.359,1.233,1.925,1.925,0,0,1-.4,1.219,2.621,2.621,0,0,1-1.055.792,3.5,3.5,0,0,1-1.383.276,4.554,4.554,0,0,1-1.741-.328,3.244,3.244,0,0,1-1.352-1.047A.745.745,0,0,1,376.635,203.792Z"/><path class="a" d="M389.723,197.782q.785.374.785.957a.7.7,0,0,1-.165.455.515.515,0,0,1-.418.2.643.643,0,0,1-.307-.061,3.136,3.136,0,0,1-.306-.194,1.67,1.67,0,0,0-.285-.209,1.915,1.915,0,0,0-.507-.149,3.37,3.37,0,0,0-.6-.06,2.611,2.611,0,0,0-1.375.359,2.444,2.444,0,0,0-.927.994,3.029,3.029,0,0,0-.329,1.412,3.09,3.09,0,0,0,.321,1.421,2.445,2.445,0,0,0,.906.986,2.486,2.486,0,0,0,1.33.359,2.834,2.834,0,0,0,1.256-.239,3.133,3.133,0,0,0,.284-.2,1.734,1.734,0,0,1,.262-.179.575.575,0,0,1,.276-.06.613.613,0,0,1,.471.187.694.694,0,0,1,.172.486.831.831,0,0,1-.4.621,3.187,3.187,0,0,1-1.061.5,5.089,5.089,0,0,1-1.427.194,3.759,3.759,0,0,1-2-.53,3.557,3.557,0,0,1-1.338-1.465,4.568,4.568,0,0,1-.471-2.086,4.395,4.395,0,0,1,.493-2.085,3.687,3.687,0,0,1,1.376-1.465,3.834,3.834,0,0,1,2.018-.531A4.572,4.572,0,0,1,389.723,197.782Z"/><path class="a" d="M398.924,203.6a3.81,3.81,0,0,1-1.428,1.45,4.068,4.068,0,0,1-3.991,0,3.8,3.8,0,0,1-1.428-1.45,4.177,4.177,0,0,1-.523-2.093,4.259,4.259,0,0,1,.523-2.107,3.777,3.777,0,0,1,1.428-1.466,4.068,4.068,0,0,1,3.991,0,3.784,3.784,0,0,1,1.428,1.466,4.259,4.259,0,0,1,.523,2.107A4.177,4.177,0,0,1,398.924,203.6Zm-1.233-3.535a2.5,2.5,0,0,0-.913-.987,2.5,2.5,0,0,0-2.556,0,2.479,2.479,0,0,0-.911.987,3.024,3.024,0,0,0-.337,1.442,2.947,2.947,0,0,0,.337,1.42,2.489,2.489,0,0,0,.911.979,2.5,2.5,0,0,0,2.556,0,2.509,2.509,0,0,0,.913-.979,2.958,2.958,0,0,0,.336-1.42A3.035,3.035,0,0,0,397.691,200.062Z"/><path class="a" d="M402.421,205.211a.691.691,0,0,1-.508.21.668.668,0,0,1-.5-.21.7.7,0,0,1-.2-.508v-9.627a.717.717,0,0,1,.718-.718.668.668,0,0,1,.5.21.7.7,0,0,1,.2.508V204.7A.688.688,0,0,1,402.421,205.211Z"/><path class="a" d="M411.4,200.712V204.7a.7.7,0,0,1-.2.508.684.684,0,0,1-.515.21.664.664,0,0,1-.5-.21.7.7,0,0,1-.2-.508v-3.991q0-1.942-1.644-1.943a2.032,2.032,0,0,0-1.465.56,1.842,1.842,0,0,0-.583,1.383V204.7a.7.7,0,0,1-.2.508.683.683,0,0,1-.516.21.667.667,0,0,1-.507-.2.71.71,0,0,1-.2-.516v-9.627a.708.708,0,0,1,.2-.508.664.664,0,0,1,.5-.21.683.683,0,0,1,.516.21.7.7,0,0,1,.2.508v3.782a3.19,3.19,0,0,1,1.047-.994,2.705,2.705,0,0,1,1.435-.411Q411.4,197.453,411.4,200.712Z"/><path class="a" d="M420.4,197.685a.718.718,0,0,1,.2.53V204.7a.7.7,0,0,1-.2.508.686.686,0,0,1-.516.21.673.673,0,0,1-.509-.2.714.714,0,0,1-.194-.516v-.389a3.171,3.171,0,0,1-1.062.89,2.982,2.982,0,0,1-1.449.366,3.388,3.388,0,0,1-1.847-.523,3.6,3.6,0,0,1-1.3-1.457,4.919,4.919,0,0,1,0-4.2,3.613,3.613,0,0,1,1.293-1.458,3.42,3.42,0,0,1,3.281-.194,3.05,3.05,0,0,1,1.084.837v-.359a.742.742,0,0,1,.194-.523.664.664,0,0,1,.509-.209A.7.7,0,0,1,420.4,197.685ZM418.08,203.9a2.431,2.431,0,0,0,.853-.986,3.2,3.2,0,0,0,.306-1.421,3.163,3.163,0,0,0-.306-1.4,2.494,2.494,0,0,0-.853-.994,2.33,2.33,0,0,0-2.5-.007,2.415,2.415,0,0,0-.852.986,3.44,3.44,0,0,0,0,2.841,2.421,2.421,0,0,0,.852.986,2.349,2.349,0,0,0,2.5,0Z"/><path class="c" d="M433.137,197.7q.785.374.785.957a.7.7,0,0,1-.165.455.516.516,0,0,1-.418.2.653.653,0,0,1-.307-.06,3.022,3.022,0,0,1-.306-.194,1.672,1.672,0,0,0-.285-.209,1.915,1.915,0,0,0-.507-.149,3.37,3.37,0,0,0-.6-.06,2.611,2.611,0,0,0-1.375.359,2.437,2.437,0,0,0-.927.994,3.014,3.014,0,0,0-.329,1.412,3.077,3.077,0,0,0,.321,1.421,2.445,2.445,0,0,0,.906.986,2.486,2.486,0,0,0,1.33.359,2.834,2.834,0,0,0,1.256-.239,3.133,3.133,0,0,0,.284-.2,1.782,1.782,0,0,1,.261-.179.579.579,0,0,1,.277-.06.613.613,0,0,1,.471.187.693.693,0,0,1,.171.486.826.826,0,0,1-.4.62,3.164,3.164,0,0,1-1.062.5,5.083,5.083,0,0,1-1.426.194,3.759,3.759,0,0,1-2-.53,3.557,3.557,0,0,1-1.338-1.465,4.568,4.568,0,0,1-.471-2.086,4.395,4.395,0,0,1,.493-2.085,3.667,3.667,0,0,1,1.376-1.465,3.834,3.834,0,0,1,2.018-.531A4.572,4.572,0,0,1,433.137,197.7Z"/><path class="c" d="M442.338,203.515a3.81,3.81,0,0,1-1.428,1.45,4.068,4.068,0,0,1-3.991,0,3.8,3.8,0,0,1-1.428-1.45,4.177,4.177,0,0,1-.523-2.093,4.266,4.266,0,0,1,.523-2.108,3.774,3.774,0,0,1,1.428-1.465,4.068,4.068,0,0,1,3.991,0,3.788,3.788,0,0,1,1.428,1.465,4.277,4.277,0,0,1,.523,2.108A4.187,4.187,0,0,1,442.338,203.515ZM441.1,199.98a2.488,2.488,0,0,0-.912-.987,2.5,2.5,0,0,0-2.556,0,2.479,2.479,0,0,0-.911.987,3.024,3.024,0,0,0-.337,1.442,2.947,2.947,0,0,0,.337,1.42,2.489,2.489,0,0,0,.911.979,2.5,2.5,0,0,0,2.556,0,2.5,2.5,0,0,0,.912-.979,2.946,2.946,0,0,0,.336-1.42A3.023,3.023,0,0,0,441.1,199.98Z"/><path class="c" d="M451.188,200.555v4.066a.7.7,0,0,1-.2.508.682.682,0,0,1-.515.21.664.664,0,0,1-.5-.21.7.7,0,0,1-.2-.508V200.57a2.243,2.243,0,0,0-.4-1.405,1.558,1.558,0,0,0-1.315-.523,2.253,2.253,0,0,0-1.084.261,2.008,2.008,0,0,0-.763.7,1.781,1.781,0,0,0-.276.964v4.051a.7.7,0,0,1-.2.508.683.683,0,0,1-.516.21.671.671,0,0,1-.508-.2.711.711,0,0,1-.194-.516v-6.4a.7.7,0,0,1,.2-.508.664.664,0,0,1,.5-.21.683.683,0,0,1,.516.21.708.708,0,0,1,.2.508v.523a3.212,3.212,0,0,1,1.084-1.009,2.872,2.872,0,0,1,1.487-.411Q451.188,197.326,451.188,200.555Z"/><path class="c" d="M452.728,203.71a.6.6,0,0,1,.313-.509.585.585,0,0,1,.344-.1.688.688,0,0,1,.494.224,3.145,3.145,0,0,0,.964.762,2.754,2.754,0,0,0,1.233.254,2.1,2.1,0,0,0,1-.261.929.929,0,0,0-.007-1.577,5.011,5.011,0,0,0-1.293-.494,9.37,9.37,0,0,1-1.39-.471,2.492,2.492,0,0,1-.935-.717,2.1,2.1,0,0,1,0-2.415,2.551,2.551,0,0,1,1.017-.792,3.355,3.355,0,0,1,1.383-.284,4.007,4.007,0,0,1,1.427.269,2.667,2.667,0,0,1,1.158.823.654.654,0,0,1,.18.433.643.643,0,0,1-.239.463.536.536,0,0,1-.373.135.563.563,0,0,1-.434-.179,2.115,2.115,0,0,0-.77-.554,2.56,2.56,0,0,0-1.009-.194,1.873,1.873,0,0,0-.964.232.833.833,0,0,0-.4.785.866.866,0,0,0,.456.777,5.807,5.807,0,0,0,1.352.493,8.416,8.416,0,0,1,1.316.449,2.294,2.294,0,0,1,.881.71,1.976,1.976,0,0,1,.36,1.233,1.921,1.921,0,0,1-.4,1.218,2.622,2.622,0,0,1-1.055.793,3.506,3.506,0,0,1-1.383.276,4.554,4.554,0,0,1-1.741-.328,3.255,3.255,0,0,1-1.353-1.047A.743.743,0,0,1,452.728,203.71Z"/><path class="c" d="M465.815,197.7q.786.374.786.957a.7.7,0,0,1-.165.455.517.517,0,0,1-.418.2.654.654,0,0,1-.307-.06,3.13,3.13,0,0,1-.307-.194,1.615,1.615,0,0,0-.284-.209,1.912,1.912,0,0,0-.508-.149,3.36,3.36,0,0,0-.6-.06,2.611,2.611,0,0,0-1.375.359,2.437,2.437,0,0,0-.927.994,3.014,3.014,0,0,0-.329,1.412,3.077,3.077,0,0,0,.321,1.421,2.449,2.449,0,0,0,.9.986,2.488,2.488,0,0,0,1.33.359,2.828,2.828,0,0,0,1.256-.239,3,3,0,0,0,.284-.2,1.84,1.84,0,0,1,.262-.179.577.577,0,0,1,.277-.06.609.609,0,0,1,.47.187.689.689,0,0,1,.172.486.829.829,0,0,1-.4.62,3.174,3.174,0,0,1-1.062.5,5.084,5.084,0,0,1-1.427.194,3.764,3.764,0,0,1-2-.53,3.555,3.555,0,0,1-1.337-1.465,4.568,4.568,0,0,1-.471-2.086,4.4,4.4,0,0,1,.493-2.085,3.667,3.667,0,0,1,1.376-1.465,3.834,3.834,0,0,1,2.018-.531A4.564,4.564,0,0,1,465.815,197.7Z"/><path class="c" d="M468.133,196.287a.616.616,0,0,1-.188-.5v-.239a.593.593,0,0,1,.2-.508,1.042,1.042,0,0,1,.621-.15.941.941,0,0,1,.6.157.619.619,0,0,1,.187.5v.239a.6.6,0,0,1-.2.508,1,1,0,0,1-.612.15A.963.963,0,0,1,468.133,196.287Zm1.136,8.842a.686.686,0,0,1-.516.21.668.668,0,0,1-.5-.21.7.7,0,0,1-.2-.508v-6.473a.7.7,0,0,1,.2-.508.671.671,0,0,1,.5-.209.689.689,0,0,1,.516.209.708.708,0,0,1,.2.508v6.473A.7.7,0,0,1,469.269,205.129Z"/><path class="c" d="M478.17,201.579a.717.717,0,0,1-.493.187h-5.263a2.6,2.6,0,0,0,.83,1.749,2.539,2.539,0,0,0,1.772.658,2.767,2.767,0,0,0,1.166-.21,2.924,2.924,0,0,0,.792-.538.838.838,0,0,1,.433-.134.566.566,0,0,1,.426.179.588.588,0,0,1,.173.419.74.74,0,0,1-.3.568,3.512,3.512,0,0,1-1.15.732,3.769,3.769,0,0,1-1.466.3,4.329,4.329,0,0,1-2.13-.508,3.535,3.535,0,0,1-1.42-1.42,4.211,4.211,0,0,1-.5-2.063,4.546,4.546,0,0,1,.516-2.2,3.722,3.722,0,0,1,1.36-1.457,3.5,3.5,0,0,1,3.61-.016,3.754,3.754,0,0,1,1.346,1.361,3.89,3.89,0,0,1,.524,1.943A.64.64,0,0,1,478.17,201.579Zm-4.889-2.467a2.314,2.314,0,0,0-.806,1.458h4.409v-.119a1.825,1.825,0,0,0-.71-1.3,2.247,2.247,0,0,0-1.443-.508A2.317,2.317,0,0,0,473.281,199.112Z"/><path class="c" d="M486.722,200.555v4.066a.7.7,0,0,1-.2.508.686.686,0,0,1-.516.21.667.667,0,0,1-.5-.21.7.7,0,0,1-.2-.508V200.57a2.243,2.243,0,0,0-.4-1.405,1.558,1.558,0,0,0-1.315-.523,2.256,2.256,0,0,0-1.084.261,2.009,2.009,0,0,0-.763.7,1.781,1.781,0,0,0-.276.964v4.051a.7.7,0,0,1-.2.508.683.683,0,0,1-.516.21.671.671,0,0,1-.508-.2.711.711,0,0,1-.194-.516v-6.4a.7.7,0,0,1,.2-.508.664.664,0,0,1,.5-.21.683.683,0,0,1,.516.21.7.7,0,0,1,.2.508v.523a3.212,3.212,0,0,1,1.084-1.009,2.872,2.872,0,0,1,1.487-.411Q486.721,197.326,486.722,200.555Z"/><path class="c" d="M490.967,198.9v4.455c0,.5.223.747.672.747a1.069,1.069,0,0,0,.284-.052,1.082,1.082,0,0,1,.284-.052.409.409,0,0,1,.329.164.627.627,0,0,1-.225.957,1.491,1.491,0,0,1-.806.224,3.641,3.641,0,0,1-.9-.105,1.339,1.339,0,0,1-.734-.53,2.143,2.143,0,0,1-.321-1.293V198.9h-.867a.639.639,0,0,1-.658-.658.619.619,0,0,1,.187-.464.655.655,0,0,1,.471-.179h.867v-1.256a.7.7,0,0,1,.2-.508.689.689,0,0,1,.516-.209.671.671,0,0,1,.5.209.708.708,0,0,1,.2.508V197.6h1.24a.639.639,0,0,1,.658.658.611.611,0,0,1-.187.463.651.651,0,0,1-.471.18Z"/><path class="c" d="M501.1,201.579a.718.718,0,0,1-.494.187h-5.262a2.6,2.6,0,0,0,.83,1.749,2.537,2.537,0,0,0,1.771.658,2.764,2.764,0,0,0,1.166-.21,2.893,2.893,0,0,0,.792-.538.841.841,0,0,1,.434-.134.568.568,0,0,1,.426.179.587.587,0,0,1,.172.419.739.739,0,0,1-.3.568,3.506,3.506,0,0,1-1.151.732,3.765,3.765,0,0,1-1.466.3,4.328,4.328,0,0,1-2.129-.508,3.529,3.529,0,0,1-1.42-1.42,4.212,4.212,0,0,1-.5-2.063,4.557,4.557,0,0,1,.515-2.2,3.725,3.725,0,0,1,1.361-1.457,3.5,3.5,0,0,1,3.61-.016,3.754,3.754,0,0,1,1.346,1.361,3.889,3.889,0,0,1,.523,1.943A.642.642,0,0,1,501.1,201.579Zm-4.889-2.467a2.319,2.319,0,0,0-.807,1.458h4.409v-.119a1.821,1.821,0,0,0-.71-1.3,2.244,2.244,0,0,0-1.442-.508A2.315,2.315,0,0,0,496.214,199.112Z"/><path class="a" d="M502.934,205.129a.784.784,0,0,1-.188-.567v-.285a.765.765,0,0,1,.188-.553.72.72,0,0,1,.544-.194h.15a.744.744,0,0,1,.56.194.765.765,0,0,1,.188.553v.285a.667.667,0,0,1-.748.762h-.15A.717.717,0,0,1,502.934,205.129Z"/></g></svg>