<svg xmlns="http://www.w3.org/2000/svg" xmlns:xlink="http://www.w3.org/1999/xlink" width="40" height="40" viewBox="0 0 40 40"><defs><style>.a{fill:url(#a);}.b{fill:#fff;}</style><linearGradient id="a" x1="0.36" x2="0.673" y2="1" gradientUnits="objectBoundingBox"><stop offset="0" stop-color="#33d89e"/><stop offset="1" stop-color="#8f89dd"/></linearGradient></defs><g transform="translate(-315 -20)"><circle class="a" cx="20" cy="20" r="20" transform="translate(315 20)"/></g><g transform="translate(11.527 11.523)"><path class="b" d="M41.345,23.127a.846.846,0,0,0,1.2,1.2,2.09,2.09,0,0,1,2.956,0,.846.846,0,0,0,1.2-1.2A3.8,3.8,0,0,0,41.345,23.127Z" transform="translate(-34.105 -18.489)"/><path class="b" d="M2.783,19.493a.854.854,0,0,0,1.2,0L7.9,15.576a7.321,7.321,0,1,0-1.2-1.2L2.783,18.3A.822.822,0,0,0,2.783,19.493Zm5.694-5.676a5.623,5.623,0,1,1,7.942,0A5.636,5.636,0,0,1,8.477,13.817Z" transform="translate(-2.525 -2.525)"/></g></svg>