<svg xmlns="http://www.w3.org/2000/svg" xmlns:xlink="http://www.w3.org/1999/xlink" width="41.51" height="45.536" viewBox="0 0 41.51 45.536"><defs><style>.a{fill:url(#a);}</style><linearGradient id="a" x1="0.5" x2="0.5" y2="1" gradientUnits="objectBoundingBox"><stop offset="0" stop-color="#33d89e"/><stop offset="1" stop-color="#8f89dd"/></linearGradient></defs><path class="a" d="M41.982,28.812a1.267,1.267,0,0,0-1.255-1.1h-.215V22.654a1.263,1.263,0,0,0-1.264-1.264H39.23V11.009A9.021,9.021,0,0,0,30.221,2a1.263,1.263,0,0,0-1.264,1.264V21.381h-.018a1.263,1.263,0,0,0-1.264,1.264V27.7H27.46A1.267,1.267,0,0,0,26.2,28.8L24.483,42.411c-.341,2.125,1.452,4.661,4.93,4.966a69.187,69.187,0,0,0,9.35,0C41.838,47.154,44,44.886,43.7,42.42ZM31.485,4.653A6.5,6.5,0,0,1,36.7,11.009V21.381H31.485ZM30.2,23.909h7.781V27.7H30.2Zm8.4,20.95a68.8,68.8,0,0,1-9.018,0c-1.515-.108-2.707-1.067-2.591-2.107l1.578-12.514H39.606l1.587,12.523C41.247,44.124,39.678,44.8,38.6,44.859Z" transform="translate(-24.442 -2)"/><path class="a" d="M325.831,195H312.564a1.263,1.263,0,0,0-1.264,1.264v23.173a3.8,3.8,0,0,0,3.792,3.792H323.3a3.8,3.8,0,0,0,3.792-3.792V196.264A1.257,1.257,0,0,0,325.831,195Zm-1.264,24.437A1.263,1.263,0,0,1,323.3,220.7h-8.211a1.262,1.262,0,0,1-1.264-1.264v-6.526h1.9a1.264,1.264,0,0,0,0-2.528h-1.9v-2.528h5.065a1.264,1.264,0,1,0,0-2.528h-5.056v-7.79h10.739v21.9Z" transform="translate(-285.585 -177.699)"/></svg>