<svg xmlns="http://www.w3.org/2000/svg" xmlns:xlink="http://www.w3.org/1999/xlink" width="40.32" height="23" viewBox="0 0 40.32 23"><defs><style>.a{fill:url(#a);}</style><linearGradient id="a" x1="0.5" x2="0.5" y2="1" gradientUnits="objectBoundingBox"><stop offset="0" stop-color="#33d89e"/><stop offset="1" stop-color="#8f89dd"/></linearGradient></defs><path class="a" d="M53.6,22H33.782C31.715,22,30,23.235,30,25.3v3.036a3.949,3.949,0,0,0,3.782,3.94H53.6a3.963,3.963,0,0,0,3.8-3.94V25.3C57.4,23.235,55.673,22,53.6,22Zm.374,6.337c0,.3-.078,1-.374,1H33.782c-.3,0-.846-.709-.846-1V25.3c0-.295.55-.364.846-.364H53.6c.3,0,.374.069.374.364Z" transform="translate(-17.084 -22)"/><path class="a" d="M53.6,47H33.782A3.7,3.7,0,0,0,30,50.656v3.036a4.072,4.072,0,0,0,3.782,4.073H53.6a4.086,4.086,0,0,0,3.8-4.073V50.656A3.719,3.719,0,0,0,53.6,47Zm.374,6.693c0,.3-.078.648-.374.648H33.782c-.3,0-.846-.353-.846-.648V50.656c0-.3.55-.23.846-.23H53.6c.3,0,.374-.065.374.23Z" transform="translate(-17.084 -34.766)"/><path class="a" d="M11.79,25.845l-.3.169.014,2.174a8.2,8.2,0,0,0,.321,16.4,1.607,1.607,0,1,0,0-3.214,4.989,4.989,0,0,1-.3-9.97l.017,2.482.2.174,3.123-3.12c.836-.835.774-1.245-.064-2.082Z" transform="translate(-3.607 -23.963)"/></svg>