<svg xmlns="http://www.w3.org/2000/svg" xmlns:xlink="http://www.w3.org/1999/xlink" width="45.922" height="45.9" viewBox="0 0 45.922 45.9"><defs><style>.a{fill:url(#a);}</style><linearGradient id="a" x1="0.5" x2="0.5" y2="1" gradientUnits="objectBoundingBox"><stop offset="0" stop-color="#3bd1a4"/><stop offset="1" stop-color="#8f89dd"/></linearGradient></defs><path class="a" d="M31.291,36.589a1.282,1.282,0,0,0,1.808,0l3.408-3.408a1.282,1.282,0,0,0,0-1.808L33.7,28.562,34.862,27.4a1.278,1.278,0,0,0,.081-1.717L18.465,5.937,14.976,2.448a1.282,1.282,0,0,0-1.808,0L2.348,13.268a1.282,1.282,0,0,0,0,1.808l3.489,3.489,19.751,16.46a1.268,1.268,0,0,0,1.717-.081l1.166-1.166Zm.895-2.7-1.907-1.907,1.6-1.6,1.907,1.907ZM5.06,14.172l9.021-9.021,1.6,1.6L6.66,15.772ZM26.329,32.313,8.549,17.489,17.4,8.64l3.109,3.733L18.383,14.5a1.282,1.282,0,0,0,0,1.808h0a1.282,1.282,0,0,0,1.808,0l1.962-1.962,2,2.4-3.968,3.968a1.282,1.282,0,0,0,0,1.808h0a1.282,1.282,0,0,0,1.808,0L25.8,18.709l6.436,7.729Z" transform="translate(-1.975 -2.075)"/><path class="a" d="M312.441,367.763a1.275,1.275,0,0,0-1.736,1.736c1.112,2.079.714,3.128-3.453,4.664-1.573.606-2.929,1.121-2.956,2.45-.027,1.392,1.609,2.1,2.495,2.468,5.116,1.835,10.639,1.871,14.933-.081a2.258,2.258,0,0,0,1.166-2.016C322.836,373.909,315.568,369.507,312.441,367.763Zm-4.709,8.949c2.106-.832,5.722-1.925,6.047-5.188,3.381,2.133,6.1,4.33,6.508,5.333C316.635,378.366,312.287,378.2,307.731,376.711Z" transform="translate(-276.969 -334.559)"/></svg>