<svg xmlns="http://www.w3.org/2000/svg" width="27.155" height="30.26" viewBox="0 0 27.155 30.26"><defs><style>.a{fill:#707070;}</style></defs><path class="a" d="M25.887,960.362a3.962,3.962,0,0,0-2.5.991,2.481,2.481,0,0,0-1.1-.27,2.519,2.519,0,0,0-1.61,4.458c-.073.189-.145.378-.214.574a15.584,15.584,0,0,0-2.747-.293c-2.2-.015-4.058.593-4.931,2.105a4.137,4.137,0,0,0-.293,3.175,10.377,10.377,0,0,0,1.824,3.479c.229.3.48.607.743.912-.263.305-.514.608-.743.912a10.334,10.334,0,0,0-1.824,3.467,4.229,4.229,0,0,0,.225,3.051,2.448,2.448,0,0,0-.158.856A2.518,2.518,0,0,0,17.2,985.14a14.544,14.544,0,0,0,3.265-.27c.133.381.279.741.428,1.092a10.339,10.339,0,0,0,2.105,3.31,4.155,4.155,0,0,0,2.893,1.351,4.155,4.155,0,0,0,2.893-1.351,10.339,10.339,0,0,0,2.105-3.31c.149-.351.295-.711.428-1.092.385.073.758.135,1.126.18a2.517,2.517,0,0,0,4.976-.54s0-.007,0-.011a3.739,3.739,0,0,0,1.576-1.441,4.165,4.165,0,0,0,.293-3.186A10.334,10.334,0,0,0,37.46,976.4c-.229-.3-.48-.607-.743-.912.263-.3.514-.608.743-.912a10.377,10.377,0,0,0,1.824-3.479,4.137,4.137,0,0,0-.293-3.175c-.873-1.512-2.728-2.12-4.931-2.105a15.584,15.584,0,0,0-2.747.293c-.133-.382-.279-.752-.428-1.1a10.339,10.339,0,0,0-2.105-3.31,4.141,4.141,0,0,0-2.893-1.34Zm0,1.441a2.683,2.683,0,0,1,1.88.923,9.1,9.1,0,0,1,1.79,2.859c.114.268.222.554.326.844a27.423,27.423,0,0,0-4,1.407,27.423,27.423,0,0,0-4-1.407c.039-.108.084-.21.124-.315a2.551,2.551,0,0,0,2.792-2.51,2.474,2.474,0,0,0-.338-1.261A2.356,2.356,0,0,1,25.887,961.8Zm-3.6.721A1.081,1.081,0,1,1,21.2,963.6,1.07,1.07,0,0,1,22.285,962.524Zm-4.571,4.739a13.672,13.672,0,0,1,2.33.236,27.541,27.541,0,0,0-.788,4.165,27.583,27.583,0,0,0-3.208,2.758c-.2-.237-.4-.476-.574-.709a9.139,9.139,0,0,1-1.587-2.983,2.666,2.666,0,0,1,.135-2.083C14.523,967.78,15.781,967.25,17.714,967.263Zm16.346,0c1.933-.013,3.191.517,3.692,1.385a2.666,2.666,0,0,1,.135,2.083,9.14,9.14,0,0,1-1.587,2.983c-.176.233-.374.473-.574.709a27.61,27.61,0,0,0-3.22-2.758,27.664,27.664,0,0,0-.777-4.165A13.672,13.672,0,0,1,34.06,967.263Zm-12.6.563a25.119,25.119,0,0,1,2.646.844c-.548.278-1.094.572-1.644.889s-1.08.664-1.6,1A24.935,24.935,0,0,1,21.463,967.826Zm8.86,0a25.038,25.038,0,0,1,.585,2.724c-.517-.337-1.047-.672-1.6-.991s-1.1-.611-1.644-.889A25.085,25.085,0,0,1,30.323,967.826Zm-4.435,1.6c.892.409,1.8.863,2.7,1.385s1.755,1.075,2.555,1.644c.092.98.146,1.992.146,3.04s-.055,2.063-.146,3.039q-1.2.851-2.555,1.632c-.906.523-1.817.987-2.713,1.4-.889-.409-1.791-.876-2.691-1.4s-1.755-1.065-2.555-1.632c-.091-.977-.146-2-.146-3.039s.055-2.052.146-3.028c.8-.57,1.65-1.132,2.555-1.655S25,969.833,25.887,969.424Zm-6.788,4.2c-.033.616-.056,1.232-.056,1.869s.024,1.257.056,1.869a25.162,25.162,0,0,1-2.071-1.869A25.139,25.139,0,0,1,19.1,973.624Zm13.577,0a25.139,25.139,0,0,1,2.071,1.869,25.162,25.162,0,0,1-2.071,1.869c.033-.612.056-1.236.056-1.869S32.708,974.24,32.676,973.624Zm-16.627,2.949a27.625,27.625,0,0,0,3.22,2.747,27.677,27.677,0,0,0,.766,4.154,13.5,13.5,0,0,1-2.432.236,2.537,2.537,0,0,0-2.522-2.454,2.494,2.494,0,0,0-1.295.371,3.358,3.358,0,0,1,.1-1.385,9.1,9.1,0,0,1,1.587-2.972C15.649,977.038,15.848,976.809,16.048,976.573Zm19.678,0c.2.236.4.465.574.7a9.1,9.1,0,0,1,1.587,2.972,2.694,2.694,0,0,1-.135,2.094,2.106,2.106,0,0,1-.777.766,2.508,2.508,0,0,0-4.435.518c-.265-.034-.533-.084-.811-.135a27.616,27.616,0,0,0,.777-4.165A27.625,27.625,0,0,0,35.726,976.573Zm-14.86,3.861c.517.337,1.047.661,1.6.979s1.1.622,1.644.9a25.272,25.272,0,0,1-2.657.844A24.99,24.99,0,0,1,20.866,980.434Zm10.042,0a25.013,25.013,0,0,1-.585,2.736,25.092,25.092,0,0,1-2.657-.856c.548-.279,1.093-.583,1.644-.9S30.391,980.771,30.908,980.434ZM15.08,982.7A1.081,1.081,0,1,1,14,983.778,1.07,1.07,0,0,1,15.08,982.7Zm10.818.45a27.506,27.506,0,0,0,4,1.4c-.106.3-.222.584-.338.856a9.1,9.1,0,0,1-1.79,2.859,2.683,2.683,0,0,1-1.88.923,2.683,2.683,0,0,1-1.88-.923,9.1,9.1,0,0,1-1.79-2.859c-.114-.268-.222-.554-.326-.844a27.27,27.27,0,0,0,4.008-1.407Zm8.995.281a1.081,1.081,0,1,1-1.081,1.081A1.07,1.07,0,0,1,34.893,983.429Z" transform="translate(-12.31 -960.362)"/></svg>