<svg xmlns="http://www.w3.org/2000/svg" width="27.305" height="24.907" viewBox="0 0 27.305 24.907"><defs><style>.a{fill:#fff;}</style></defs><path class="a" d="M27.83,59.4c-.055-.083-1.272-1.907-4.423-1.189a37.818,37.818,0,0,0-4.23,1.216,1.591,1.591,0,0,0-1.465-1.382L6.184,55.806v-.663a.437.437,0,0,0-.442-.442h-4.7a.437.437,0,0,0-.442.442v9.012a.437.437,0,0,0,.442.442h4.7a.437.437,0,0,0,.442-.442v-.94c1.769.691,6.8,2.6,9.4,2.6,3.179,0,11.749-5.556,12.108-5.805A.425.425,0,0,0,27.83,59.4ZM1.485,63.684v-8.1H5.272v.581h0v6.358h0v1.161Zm14.1,1.216c-2.626,0-8.127-2.156-9.4-2.681v-5.5L17.629,58.93a.691.691,0,0,1,0,1.382H11.215a.442.442,0,1,0,0,.885h6.441a1.58,1.58,0,0,0,1.327-.746,32.815,32.815,0,0,1,4.644-1.382,3.614,3.614,0,0,1,3.151.47C24.955,60.7,18.126,64.9,15.583,64.9Z" transform="translate(-0.6 -40.906)"/><path class="a" d="M48.087,4.8a7.187,7.187,0,1,0,7.188,7.187A7.209,7.209,0,0,0,48.087,4.8Zm5.75,4.617c-1.382,1.078-1.88.746-2.654.249A3.372,3.372,0,0,0,48.392,9c-.885.194-1.52.111-1.742-.249A1.419,1.419,0,0,1,46.9,7.316a2.406,2.406,0,0,0,.525-1.6,5.327,5.327,0,0,1,.663-.028A6.252,6.252,0,0,1,53.838,9.417Zm-11.776,4.34a4.9,4.9,0,0,0,3.566.415,2.226,2.226,0,0,1,2.488.691c.138.3.055.581-.332.885a2.8,2.8,0,0,0-1.3,2.322A6.319,6.319,0,0,1,42.061,13.757Zm6.026,4.534c-.221,0-.47-.028-.691-.028-.055-.249-.083-1,.94-1.769a1.561,1.561,0,0,0,.581-1.99,3,3,0,0,0-3.538-1.161,4.076,4.076,0,0,1-3.428-.663.6.6,0,0,0-.138-.083,4.083,4.083,0,0,1-.028-.581,6.345,6.345,0,0,1,4.727-6.109,1.428,1.428,0,0,1-.359.912,2.275,2.275,0,0,0-.276,2.46c.3.5,1.05,1,2.709.636a2.343,2.343,0,0,1,2.073.525,2.829,2.829,0,0,0,1.631.608,3.087,3.087,0,0,0,1.825-.719,6.71,6.71,0,0,1,.221,1.686A6.212,6.212,0,0,1,48.087,18.29Z" transform="translate(-29.759 -4.8)"/><path class="a" d="M73.215,37c-.083.055-.442.276-.442.276-.3.194-.111.636,0,.885a6.615,6.615,0,0,0,.359.663.33.33,0,0,0,.249.138.393.393,0,0,0,.166-.055,1.98,1.98,0,0,0,.442-1.8C73.962,37.03,73.74,36.726,73.215,37Zm.194,1.161c-.083-.194-.194-.387-.221-.5.111-.055.359-.221.359-.221A1.918,1.918,0,0,1,73.409,38.163Z" transform="translate(-52.703 -28.018)"/></svg>