<svg xmlns="http://www.w3.org/2000/svg" xmlns:xlink="http://www.w3.org/1999/xlink" width="121" height="126.729" viewBox="0 0 121 126.729"><defs><style>.a{fill:url(#a);}.b{fill:#333132;}</style><linearGradient id="a" x1="0.5" x2="0.5" y2="1" gradientUnits="objectBoundingBox"><stop offset="0" stop-color="#33d89e"/><stop offset="1" stop-color="#8f89dd"/></linearGradient></defs><circle class="a" cx="44.5" cy="44.5" r="44.5" transform="translate(32)"/><g transform="translate(-0.6 29.797)"><path class="b" d="M101.321,72.083c-.2-.307-4.7-7.056-16.361-4.4a139.888,139.888,0,0,0-15.645,4.5,5.886,5.886,0,0,0-5.42-5.113L21.256,58.79V56.336A1.615,1.615,0,0,0,19.619,54.7H2.236A1.615,1.615,0,0,0,.6,56.336V89.671a1.615,1.615,0,0,0,1.636,1.636H19.619a1.615,1.615,0,0,0,1.636-1.636V86.195c6.544,2.556,25.155,9.612,34.767,9.612,11.759,0,43.458-20.553,44.788-21.474A1.573,1.573,0,0,0,101.321,72.083ZM3.872,87.933V57.972H17.881V60.12h0V83.638h0v4.295Zm52.15,4.5c-9.714,0-30.063-7.976-34.767-9.919V62.165l42.334,8.18a2.556,2.556,0,0,1,0,5.113H39.866a1.636,1.636,0,1,0,0,3.272H63.691A5.846,5.846,0,0,0,68.6,75.969a121.383,121.383,0,0,1,17.179-5.113c6.34-1.432,9.919.409,11.657,1.738C90.687,76.889,65.43,92.432,56.022,92.432Z" transform="translate(0 1.125)"/><path class="b" d="M67.486,4.8A26.586,26.586,0,1,0,94.073,31.386,26.664,26.664,0,0,0,67.486,4.8ZM88.755,21.877c-5.113,3.988-6.953,2.761-9.816.92-2.352-1.534-5.317-3.477-10.328-2.454-3.272.716-5.624.409-6.442-.92-.92-1.329-.2-3.783.92-5.317a8.9,8.9,0,0,0,1.943-5.931,19.7,19.7,0,0,1,2.454-.1A23.126,23.126,0,0,1,88.755,21.877ZM45.195,37.931a18.135,18.135,0,0,0,13.191,1.534c4.5-1.227,8.283.716,9.2,2.556.511,1.125.2,2.147-1.227,3.272-4.09,3.17-4.908,6.442-4.806,8.589A23.375,23.375,0,0,1,45.195,37.931ZM67.486,54.7c-.818,0-1.738-.1-2.556-.1-.2-.92-.307-3.681,3.477-6.544,2.659-2.045,3.374-4.806,2.147-7.362C68.816,37.215,63.5,34.658,57.465,36.4a15.077,15.077,0,0,1-12.68-2.454,2.235,2.235,0,0,0-.511-.307,15.1,15.1,0,0,1-.1-2.147A23.468,23.468,0,0,1,61.658,8.89a5.283,5.283,0,0,1-1.329,3.374c-1.738,2.352-2.863,6.238-1.023,9.1,1.125,1.841,3.886,3.681,10.021,2.352,3.579-.818,5.522.511,7.669,1.943a10.466,10.466,0,0,0,6.033,2.25c1.943,0,4.09-.716,6.749-2.659a24.82,24.82,0,0,1,.818,6.238A22.978,22.978,0,0,1,67.486,54.7Z" transform="translate(0.909)"/><path class="b" d="M74.849,37.309c-.307.2-1.636,1.023-1.636,1.023-1.125.716-.409,2.352,0,3.272a24.478,24.478,0,0,0,1.329,2.454,1.22,1.22,0,0,0,.92.511,1.453,1.453,0,0,0,.613-.2c1.023-.614,2.659-4.908,1.636-6.647C77.61,37.412,76.792,36.287,74.849,37.309Zm.716,4.295c-.307-.716-.716-1.432-.818-1.841.409-.2,1.329-.818,1.329-.818A7.1,7.1,0,0,1,75.565,41.6Z" transform="translate(1.624 0.724)"/></g></svg>