<svg xmlns="http://www.w3.org/2000/svg" xmlns:xlink="http://www.w3.org/1999/xlink" width="148.086" height="127.338" viewBox="0 0 148.086 127.338"><defs><style>.a{fill:url(#a);}.b{fill:#333132;}</style><linearGradient id="a" x1="0.5" x2="0.5" y2="1" gradientUnits="objectBoundingBox"><stop offset="0" stop-color="#33d89e"/><stop offset="1" stop-color="#8f89dd"/></linearGradient></defs><circle class="a" cx="44.5" cy="44.5" r="44.5"/><g transform="translate(31.13 34.773)"><path class="b" d="M117.715,33.08l-9.6-9.478a4.555,4.555,0,0,0-4.062-1.6,5.792,5.792,0,0,0-4.062,1.723L90.511,33.2a10.489,10.489,0,0,0-8.37-4.308H55.553A27.677,27.677,0,1,0,18.871,65.207V94.38a10.585,10.585,0,0,0,10.586,10.586H82.264A10.665,10.665,0,0,0,92.85,94.38V66.438l25.111-25.357A5.767,5.767,0,0,0,117.715,33.08ZM64.785,70.623l6.155,6.155-9.232,4.308a.967.967,0,0,1-1.354-1.231ZM77.71,72.1c-.369.369-.739.615-1.108.985l-8.124-8a8.951,8.951,0,0,1,.985-1.108l24-24.126,8.247,8.247ZM9.147,40.1A21.049,21.049,0,1,1,30.2,61.145,21.119,21.119,0,0,1,9.147,40.1ZM86.08,94.38a4.075,4.075,0,0,1-3.939,4.062H29.334A3.994,3.994,0,0,1,25.4,94.38v-27.2a30.194,30.194,0,0,0,4.8.492,27.738,27.738,0,0,0,27.7-27.7,27.126,27.126,0,0,0-.492-4.431H82.141A4.031,4.031,0,0,1,85.834,38L64.908,59.175A30.4,30.4,0,0,0,59,67.545l-4.431,9.6a7.482,7.482,0,0,0,1.477,8.493,7.358,7.358,0,0,0,5.293,2.216,7.182,7.182,0,0,0,3.2-.739l9.478-4.431a30.4,30.4,0,0,0,8.37-5.908l3.693-3.693ZM106.39,43.3l-8.247-8.247,6.155-6.155,8.247,8.247Z" transform="translate(-2.5 -12.4)"/><path class="b" d="M37.073,29.262a3.423,3.423,0,0,0-4.678.123l-8.124,8.74-3.2-3.324a3.309,3.309,0,1,0-4.8,4.554l5.539,6.032A3.54,3.54,0,0,0,24.271,46.5a3.28,3.28,0,0,0,2.462-1.108L37.319,34.063A3.455,3.455,0,0,0,37.073,29.262Z" transform="translate(0.47 -8.706)"/></g></svg>