<svg xmlns="http://www.w3.org/2000/svg" xmlns:xlink="http://www.w3.org/1999/xlink" width="30.274" height="45.692" viewBox="0 0 30.274 45.692"><defs><style>.a{fill:url(#a);}</style><linearGradient id="a" x1="0.5" x2="0.5" y2="1" gradientUnits="objectBoundingBox"><stop offset="0" stop-color="#33d89e"/><stop offset="1" stop-color="#8f89dd"/></linearGradient></defs><path class="a" d="M117.529,5.922l-3.544-3.553a1.272,1.272,0,0,0-.9-.369h-19.5a1.268,1.268,0,0,0,0,2.536h7.007V7.649h-1.8a1.267,1.267,0,0,0-1.268,1.268v4.659h-.207a1.267,1.267,0,0,0-1.268,1.358c.288,4.057-2.015,8.167-4.245,12.152-3.607,6.458-7.7,13.78,1.025,20.355a1.3,1.3,0,0,0,.765.252h16.514a1.3,1.3,0,0,0,.765-.252c8.725-6.575,4.632-13.9,1.025-20.355-2.222-3.985-4.524-8.1-4.245-12.152a1.268,1.268,0,0,0-1.268-1.358h-.207V8.917a1.267,1.267,0,0,0-1.268-1.268h-1.8V4.536h9.426l3.175,3.175a1.273,1.273,0,0,0,1.8,0A1.249,1.249,0,0,0,117.529,5.922ZM94.036,28.327c2.177-3.895,4.425-7.915,4.578-12.215h1.952a89.563,89.563,0,0,0,.684,13.249H93.46C93.64,29.02,93.838,28.678,94.036,28.327ZM109.7,45.156H94.045C88.918,41.117,89.5,37.2,92.129,31.907h9.525c.765,4.075,2.024,7.8,4.111,9.75a1.266,1.266,0,1,0,1.727-1.853c-1.547-1.448-2.572-4.425-3.238-7.9h7.358C114.237,37.2,114.813,41.117,109.7,45.156Zm-4.578-29.043c.153,4.29,2.4,8.311,4.578,12.215.2.351.387.7.576,1.043h-6.44a89.365,89.365,0,0,1-.729-13.249h2.015Zm-1.448-5.927v3.391h-3.6V10.185Z" transform="translate(-87.625 -2)"/></svg>