<svg xmlns="http://www.w3.org/2000/svg" xmlns:xlink="http://www.w3.org/1999/xlink" width="33" height="20.567" viewBox="0 0 33 20.567"><defs><style>.a{fill:#d80303;}.b{fill:url(#a);}.c{fill:url(#b);}.d{fill:#00b576;}.e{fill:#333132;}.f{fill:#ffba00;}</style><linearGradient id="a" x1="-0.018" y1="0.844" x2="0.882" y2="0.336" gradientUnits="objectBoundingBox"><stop offset="0" stop-color="#d80303"/><stop offset="0.117" stop-color="#d80303"/><stop offset="0.344" stop-color="#f5892a"/><stop offset="0.554" stop-color="#f9b72e"/><stop offset="0.749" stop-color="#ffba00"/><stop offset="0.895" stop-color="#ffba00"/><stop offset="1" stop-color="#ffba00"/></linearGradient><linearGradient id="b" x1="0.005" y1="0.301" x2="0.783" y2="0.669" gradientUnits="objectBoundingBox"><stop offset="0" stop-color="#ffba00"/><stop offset="0.365" stop-color="#ffba00"/><stop offset="0.581" stop-color="#c7c70a"/><stop offset="0.744" stop-color="#a3be10"/><stop offset="1" stop-color="#00b576"/></linearGradient></defs><g transform="translate(1.036 0.83)"><path class="a" d="M103.481,156.059l-4.572-4.131a15.286,15.286,0,0,0-4.024,10.356c0,.032,0,.063,0,.095h6.162c0-.032,0-.063,0-.095A9.145,9.145,0,0,1,103.481,156.059Z" transform="translate(-94.885 -146.959)"/><path class="b" d="M156.179,100.646a15.282,15.282,0,0,0-9.642,3.989l4.131,4.572a9.145,9.145,0,0,1,5.823-2.406Z" transform="translate(-141.532 -100.646)"/><path class="c" d="M267.112,104.639a15.283,15.283,0,0,0-9.642-3.989l-.311,6.154a9.143,9.143,0,0,1,5.822,2.409Z" transform="translate(-241.434 -100.65)"/><path class="d" d="M327.387,151.928l-4.573,4.133a9.144,9.144,0,0,1,2.435,6.224c0,.032,0,.063,0,.095h6.162c0-.032,0-.063,0-.095A15.284,15.284,0,0,0,327.387,151.928Z" transform="translate(-300.727 -146.959)"/></g><path class="e" d="M1.61,0a1.61,1.61,0,0,1,1.61,1.61L6.884,6.884,1.61,3.221A1.61,1.61,0,0,1,1.61,0Z" transform="translate(14.831 15.7) rotate(-45)"/><circle class="d" cx="4" cy="4" r="4" transform="translate(25 12)"/><circle class="a" cx="4" cy="4" r="4" transform="translate(0 12)"/><ellipse class="f" cx="3.5" cy="4" rx="3.5" ry="4" transform="translate(13)"/></svg>