<svg xmlns="http://www.w3.org/2000/svg" xmlns:xlink="http://www.w3.org/1999/xlink" width="60" height="60" viewBox="0 0 60 60"><defs><style>.a{fill:#33d89e;}.b{fill:#fff;}.c{fill:url(#a);}</style><linearGradient id="a" x1="0.5" x2="0.5" y2="1" gradientUnits="objectBoundingBox"><stop offset="0" stop-color="#33d89e"/><stop offset="1" stop-color="#8f89dd"/></linearGradient></defs><circle class="a" cx="30" cy="30" r="30"/><path class="b" d="M27,0A27,27,0,1,1,0,27,27,27,0,0,1,27,0Z" transform="translate(3 3)"/><g transform="translate(-17 -12.337)"><g transform="translate(32 28)"><path class="c" d="M61.73,62.685a1.652,1.652,0,0,1-3.3,0,11.562,11.562,0,0,0-23.124,0,1.652,1.652,0,0,1-3.3,0,14.865,14.865,0,0,1,29.73,0ZM46.865,46.169a9.084,9.084,0,1,1,9.084-9.084A9.084,9.084,0,0,1,46.865,46.169Zm0-3.3a5.781,5.781,0,1,0-5.781-5.781A5.781,5.781,0,0,0,46.865,42.865Z" transform="translate(-32 -28)"/></g></g></svg>