<svg xmlns="http://www.w3.org/2000/svg" xmlns:xlink="http://www.w3.org/1999/xlink" width="89" height="126.232" viewBox="0 0 89 126.232"><defs><style>.a{fill:url(#a);}.b{fill:none;stroke:#333132;stroke-width:4px;fill-rule:evenodd;}</style><linearGradient id="a" x1="0.5" x2="0.5" y2="1" gradientUnits="objectBoundingBox"><stop offset="0" stop-color="#33d89e"/><stop offset="1" stop-color="#8f89dd"/></linearGradient></defs><circle class="a" cx="44.5" cy="44.5" r="44.5"/><g transform="translate(4.5 55)"><path class="b" d="M63.666,36.106a20.079,20.079,0,0,0-28.756,0l-.639.653a23.718,23.718,0,0,0-.005,33.1L60.042,96.112a10.472,10.472,0,0,0,14.988,0l25.777-26.253a23.706,23.706,0,0,0-.005-33.1l-.639-.653a20.07,20.07,0,0,0-28.756,0l-.11.113a5.251,5.251,0,0,1-7.519,0Z" transform="translate(-27.539 -30.038)"/></g></svg>